<svg id="Capa_1" data-name="Capa 1" xmlns="http://www.w3.org/2000/svg" xmlns:xlink="http://www.w3.org/1999/xlink" viewBox="0 0 524.11 420.83"><defs><style>.cls-1{opacity:0.75;}.cls-2{fill:url(#Degradado_sin_nombre_65);}.cls-3{fill:url(#Degradado_sin_nombre_65-2);}.cls-4{fill:url(#Degradado_sin_nombre_65-3);}.cls-5{fill:url(#Degradado_sin_nombre_65-4);}.cls-6{fill:url(#Degradado_sin_nombre_65-5);}.cls-7{fill:url(#Degradado_sin_nombre_65-6);}.cls-8{fill:url(#Degradado_sin_nombre_65-7);}.cls-9{fill:url(#Degradado_sin_nombre_65-8);}.cls-10{fill:url(#Degradado_sin_nombre_65-9);}.cls-11{fill:url(#Degradado_sin_nombre_65-10);}.cls-12{fill:url(#Degradado_sin_nombre_65-11);}.cls-13{fill:url(#Degradado_sin_nombre_65-12);}.cls-14{fill:url(#Degradado_sin_nombre_65-13);}.cls-15{fill:url(#Degradado_sin_nombre_65-14);}.cls-16{fill:url(#Degradado_sin_nombre_65-15);}.cls-17{fill:url(#Degradado_sin_nombre_65-16);}.cls-18{fill:url(#Degradado_sin_nombre_65-17);}.cls-19{fill:url(#Degradado_sin_nombre_65-18);}.cls-20{fill:url(#Degradado_sin_nombre_65-19);}.cls-21{fill:url(#Degradado_sin_nombre_65-20);}.cls-22{fill:url(#Degradado_sin_nombre_65-21);}.cls-23{fill:url(#Degradado_sin_nombre_65-22);}.cls-24{fill:url(#Degradado_sin_nombre_65-23);}.cls-25{fill:url(#Degradado_sin_nombre_65-24);}.cls-26{fill:url(#Degradado_sin_nombre_65-25);}.cls-27{fill:url(#Degradado_sin_nombre_65-26);}.cls-28{fill:url(#Degradado_sin_nombre_65-27);}.cls-29{fill:url(#Degradado_sin_nombre_65-28);}.cls-30{fill:url(#Degradado_sin_nombre_65-29);}.cls-31{fill:url(#Degradado_sin_nombre_65-30);}.cls-32{fill:url(#Degradado_sin_nombre_65-31);}.cls-33{fill:url(#Degradado_sin_nombre_65-32);}.cls-34{fill:url(#Degradado_sin_nombre_65-33);}.cls-35{fill:url(#Degradado_sin_nombre_65-34);}.cls-36{fill:url(#Degradado_sin_nombre_65-35);}.cls-37{fill:url(#Degradado_sin_nombre_65-36);}.cls-38{fill:url(#Degradado_sin_nombre_65-37);}.cls-39{fill:url(#Degradado_sin_nombre_65-38);}.cls-40{fill:url(#Degradado_sin_nombre_65-39);}.cls-41{fill:url(#Degradado_sin_nombre_65-40);}.cls-42{fill:url(#Degradado_sin_nombre_65-41);}.cls-43{fill:url(#Degradado_sin_nombre_65-42);}.cls-44{fill:url(#Degradado_sin_nombre_65-43);}.cls-45{fill:url(#Degradado_sin_nombre_65-44);}.cls-46{fill:url(#Degradado_sin_nombre_65-45);}.cls-47{fill:url(#Degradado_sin_nombre_65-46);}.cls-48{fill:url(#Degradado_sin_nombre_65-47);}.cls-49{fill:url(#Degradado_sin_nombre_65-48);}.cls-50{fill:url(#Degradado_sin_nombre_65-49);}.cls-51{fill:url(#Degradado_sin_nombre_65-50);}.cls-52{fill:url(#Degradado_sin_nombre_65-51);}.cls-53{fill:url(#Degradado_sin_nombre_65-52);}.cls-54{fill:url(#Degradado_sin_nombre_65-53);}.cls-55{fill:url(#Degradado_sin_nombre_65-54);}.cls-56{fill:url(#Degradado_sin_nombre_65-55);}.cls-57{fill:url(#Degradado_sin_nombre_65-56);}</style><linearGradient id="Degradado_sin_nombre_65" x1="673.13" y1="421.63" x2="673.13" y2="410.87" gradientUnits="userSpaceOnUse"><stop offset="0" stop-color="#ee4d7a"/><stop offset="0.2" stop-color="#f7931e"/><stop offset="0.23" stop-color="#d99b33"/><stop offset="0.29" stop-color="#aba855"/><stop offset="0.34" stop-color="#89b16d"/><stop offset="0.39" stop-color="#74b77c"/><stop offset="0.42" stop-color="#6db981"/><stop offset="0.51" stop-color="#3aa797"/><stop offset="0.59" stop-color="#0b97ac"/><stop offset="0.62" stop-color="#1492ad"/><stop offset="0.74" stop-color="#3f7bb4"/><stop offset="0.8" stop-color="#4f72b7"/><stop offset="0.81" stop-color="#5b6fb3"/><stop offset="0.84" stop-color="#8765a1"/><stop offset="0.88" stop-color="#ac5c93"/><stop offset="0.91" stop-color="#c95688"/><stop offset="0.94" stop-color="#de5180"/><stop offset="0.97" stop-color="#ea4e7c"/><stop offset="1" stop-color="#ee4d7a"/></linearGradient><linearGradient id="Degradado_sin_nombre_65-2" x1="688.44" y1="423.23" x2="688.44" y2="407.79" xlink:href="#Degradado_sin_nombre_65"/><linearGradient id="Degradado_sin_nombre_65-3" x1="669.85" y1="444.62" x2="669.85" y2="424.17" xlink:href="#Degradado_sin_nombre_65"/><linearGradient id="Degradado_sin_nombre_65-4" x1="623.95" y1="486.6" x2="623.95" y2="364.18" xlink:href="#Degradado_sin_nombre_65"/><linearGradient id="Degradado_sin_nombre_65-5" x1="703.08" y1="461.32" x2="703.08" y2="410.55" xlink:href="#Degradado_sin_nombre_65"/><linearGradient id="Degradado_sin_nombre_65-6" x1="713.33" y1="466.03" x2="713.33" y2="437.23" xlink:href="#Degradado_sin_nombre_65"/><linearGradient id="Degradado_sin_nombre_65-7" x1="640.1" y1="317.88" x2="640.1" y2="301.11" xlink:href="#Degradado_sin_nombre_65"/><linearGradient id="Degradado_sin_nombre_65-8" x1="668.25" y1="392.61" x2="668.25" y2="324.93" xlink:href="#Degradado_sin_nombre_65"/><linearGradient id="Degradado_sin_nombre_65-9" x1="642.96" y1="300.21" x2="642.96" y2="283.83" xlink:href="#Degradado_sin_nombre_65"/><linearGradient id="Degradado_sin_nombre_65-10" x1="665.75" y1="337.23" x2="665.75" y2="301.19" xlink:href="#Degradado_sin_nombre_65"/><linearGradient id="Degradado_sin_nombre_65-11" x1="688.59" y1="406.26" x2="688.59" y2="340.93" xlink:href="#Degradado_sin_nombre_65"/><linearGradient id="Degradado_sin_nombre_65-12" x1="690.53" y1="431.61" x2="690.53" y2="302.97" xlink:href="#Degradado_sin_nombre_65"/><linearGradient id="Degradado_sin_nombre_65-13" x1="670.9" y1="302.29" x2="670.9" y2="262.81" xlink:href="#Degradado_sin_nombre_65"/><linearGradient id="Degradado_sin_nombre_65-14" x1="708.29" y1="400.52" x2="708.29" y2="308.29" xlink:href="#Degradado_sin_nombre_65"/><linearGradient id="Degradado_sin_nombre_65-15" x1="685.01" y1="287.56" x2="685.01" y2="268.07" xlink:href="#Degradado_sin_nombre_65"/><linearGradient id="Degradado_sin_nombre_65-16" x1="716.91" y1="430.82" x2="716.91" y2="290.64" xlink:href="#Degradado_sin_nombre_65"/><linearGradient id="Degradado_sin_nombre_65-17" x1="566.07" y1="166.02" x2="566.07" y2="140.23" xlink:href="#Degradado_sin_nombre_65"/><linearGradient id="Degradado_sin_nombre_65-18" x1="587.99" y1="280.62" x2="587.99" y2="181.22" xlink:href="#Degradado_sin_nombre_65"/><linearGradient id="Degradado_sin_nombre_65-19" x1="582.51" y1="153.7" x2="582.51" y2="132.2" xlink:href="#Degradado_sin_nombre_65"/><linearGradient id="Degradado_sin_nombre_65-20" x1="579.97" y1="210.51" x2="579.97" y2="157.75" xlink:href="#Degradado_sin_nombre_65"/><linearGradient id="Degradado_sin_nombre_65-21" x1="609.77" y1="282.93" x2="609.77" y2="216.54" xlink:href="#Degradado_sin_nombre_65"/><linearGradient id="Degradado_sin_nombre_65-22" x1="624.45" y1="291.57" x2="624.45" y2="174.05" xlink:href="#Degradado_sin_nombre_65"/><linearGradient id="Degradado_sin_nombre_65-23" x1="608.09" y1="181.36" x2="608.09" y2="139.6" xlink:href="#Degradado_sin_nombre_65"/><linearGradient id="Degradado_sin_nombre_65-24" x1="626.06" y1="256.89" x2="626.06" y2="188.87" xlink:href="#Degradado_sin_nombre_65"/><linearGradient id="Degradado_sin_nombre_65-25" x1="619.21" y1="174.71" x2="619.21" y2="158.45" xlink:href="#Degradado_sin_nombre_65"/><linearGradient id="Degradado_sin_nombre_65-26" x1="644.65" y1="264.59" x2="644.65" y2="179.03" xlink:href="#Degradado_sin_nombre_65"/><linearGradient id="Degradado_sin_nombre_65-27" x1="663.28" y1="192.83" x2="663.28" y2="73.12" xlink:href="#Degradado_sin_nombre_65"/><linearGradient id="Degradado_sin_nombre_65-28" x1="625.27" y1="130.36" x2="625.27" y2="86.79" xlink:href="#Degradado_sin_nombre_65"/><linearGradient id="Degradado_sin_nombre_65-29" x1="222.3" y1="174.85" x2="230.9" y2="174.85" xlink:href="#Degradado_sin_nombre_65"/><linearGradient id="Degradado_sin_nombre_65-30" x1="238.39" y1="163.75" x2="246.89" y2="163.75" xlink:href="#Degradado_sin_nombre_65"/><linearGradient id="Degradado_sin_nombre_65-31" x1="237" y1="224.35" x2="246.29" y2="224.35" xlink:href="#Degradado_sin_nombre_65"/><linearGradient id="Degradado_sin_nombre_65-32" x1="256.28" y1="490.32" x2="256.28" y2="211.7" xlink:href="#Degradado_sin_nombre_65"/><linearGradient id="Degradado_sin_nombre_65-33" x1="269.77" y1="198.48" x2="279.26" y2="198.48" xlink:href="#Degradado_sin_nombre_65"/><linearGradient id="Degradado_sin_nombre_65-34" x1="290.84" y1="232.83" x2="290.84" y2="196.65" xlink:href="#Degradado_sin_nombre_65"/><linearGradient id="Degradado_sin_nombre_65-35" x1="387.26" y1="246.98" x2="387.26" y2="210.99" xlink:href="#Degradado_sin_nombre_65"/><linearGradient id="Degradado_sin_nombre_65-36" x1="309.68" y1="191.28" x2="309.68" y2="75.01" xlink:href="#Degradado_sin_nombre_65"/><linearGradient id="Degradado_sin_nombre_65-37" x1="379.19" y1="270.78" x2="379.19" y2="238.59" xlink:href="#Degradado_sin_nombre_65"/><linearGradient id="Degradado_sin_nombre_65-38" x1="358.48" y1="233.3" x2="358.48" y2="155.66" xlink:href="#Degradado_sin_nombre_65"/><linearGradient id="Degradado_sin_nombre_65-39" x1="291.6" y1="147.4" x2="291.6" y2="91.57" xlink:href="#Degradado_sin_nombre_65"/><linearGradient id="Degradado_sin_nombre_65-40" x1="303.03" y1="219.28" x2="303.03" y2="108.11" xlink:href="#Degradado_sin_nombre_65"/><linearGradient id="Degradado_sin_nombre_65-41" x1="343.75" y1="287.43" x2="343.75" y2="216.1" xlink:href="#Degradado_sin_nombre_65"/><linearGradient id="Degradado_sin_nombre_65-42" x1="302.01" y1="205.53" x2="302.01" y2="132.51" xlink:href="#Degradado_sin_nombre_65"/><linearGradient id="Degradado_sin_nombre_65-43" x1="326.23" y1="267.17" x2="326.23" y2="236.96" xlink:href="#Degradado_sin_nombre_65"/><linearGradient id="Degradado_sin_nombre_65-44" x1="304.09" y1="230.91" x2="304.09" y2="159.67" xlink:href="#Degradado_sin_nombre_65"/><linearGradient id="Degradado_sin_nombre_65-45" x1="445.8" y1="401.32" x2="445.8" y2="392.53" xlink:href="#Degradado_sin_nombre_65"/><linearGradient id="Degradado_sin_nombre_65-46" x1="429.28" y1="403.16" x2="429.28" y2="293.31" xlink:href="#Degradado_sin_nombre_65"/><linearGradient id="Degradado_sin_nombre_65-47" x1="462.58" y1="403.24" x2="462.58" y2="378.12" xlink:href="#Degradado_sin_nombre_65"/><linearGradient id="Degradado_sin_nombre_65-48" x1="444.74" y1="419.25" x2="444.74" y2="402.18" xlink:href="#Degradado_sin_nombre_65"/><linearGradient id="Degradado_sin_nombre_65-49" x1="407.08" y1="393.28" x2="407.08" y2="275.78" xlink:href="#Degradado_sin_nombre_65"/><linearGradient id="Degradado_sin_nombre_65-50" x1="406.48" y1="435.81" x2="406.48" y2="244.94" xlink:href="#Degradado_sin_nombre_65"/><linearGradient id="Degradado_sin_nombre_65-51" x1="471.13" y1="452.12" x2="471.13" y2="371.88" xlink:href="#Degradado_sin_nombre_65"/><linearGradient id="Degradado_sin_nombre_65-52" x1="389.6" y1="441.72" x2="389.6" y2="302.64" xlink:href="#Degradado_sin_nombre_65"/><linearGradient id="Degradado_sin_nombre_65-53" x1="489.29" y1="462.72" x2="489.29" y2="409.97" xlink:href="#Degradado_sin_nombre_65"/><linearGradient id="Degradado_sin_nombre_65-54" x1="388.21" y1="468.04" x2="388.21" y2="275.15" xlink:href="#Degradado_sin_nombre_65"/><linearGradient id="Degradado_sin_nombre_65-55" x1="480.27" y1="412.27" x2="480.27" y2="69.49" xlink:href="#Degradado_sin_nombre_65"/><linearGradient id="Degradado_sin_nombre_65-56" x1="463.42" y1="374.63" x2="463.42" y2="250.35" xlink:href="#Degradado_sin_nombre_65"/></defs><title>logo-need-soft</title><g class="cls-1"><path class="cls-2" d="M673.93,421.25a28.86,28.86,0,0,0,3.43-5.38c.16-.25.31-.63.47-1a2.19,2.19,0,0,0-.23-2,4.15,4.15,0,0,0-2-1.64,5.32,5.32,0,0,0-2.56-.36,1.91,1.91,0,0,0-1.61,1l-.18.4-.08.19-.09.15c-.11.19-.21.39-.32.59l-.3.6-.33.53a11.54,11.54,0,0,1-.65,1,5.11,5.11,0,0,0-.33.48l-.16.25-.18.21c-.13.16-.26.32-.38.49a.46.46,0,0,0-.1.26.85.85,0,0,0,0,.32,2.67,2.67,0,0,0,.29.83,6.84,6.84,0,0,0,1.56,2,5.88,5.88,0,0,0,2.17,1.31,2.29,2.29,0,0,0,1,.1,1,1,0,0,0,.39-.12A1,1,0,0,0,673.93,421.25Z" transform="translate(-217.89 -69.49)"/><path class="cls-3" d="M689.65,421.87l.13-.25.13-.27.25-.53.5-1.08c.16-.36.34-.71.49-1.08l.45-1.1.45-1.1.23-.54.2-.56.8-2.24c.15-.43.27-.86.41-1.29a2.92,2.92,0,0,0-.38-2.39,3.58,3.58,0,0,0-2.19-1.53,4.45,4.45,0,0,0-2.63.18,2.65,2.65,0,0,0-1.59,1.6,59.7,59.7,0,0,1-3.11,7.94l-.25.54-.12.28-.13.24a2.33,2.33,0,0,0,.1,2.08,3.82,3.82,0,0,0,.31.55,4.5,4.5,0,0,0,.39.5,4.2,4.2,0,0,0,1.09.85,5.06,5.06,0,0,0,1.31.48,5,5,0,0,0,.66.08,4.21,4.21,0,0,0,.62-.05A2.54,2.54,0,0,0,689.65,421.87Z" transform="translate(-217.89 -69.49)"/><path class="cls-4" d="M657.8,444.58l1.41-.28.83-.16.45-.09.45-.11,1.9-.48a8.57,8.57,0,0,0,1-.28l1-.3,1-.3,1-.34c.62-.24,1.23-.44,1.79-.67l1.54-.67.67-.28.56-.29,1.64-.82,1.57-.92c.54-.29,1-.64,1.52-1l.75-.5c.13-.09.26-.16.38-.25l.35-.28L679,435.5l1.36-1.18.34-.29.17-.14.16-.16.63-.64.64-.63.32-.32.3-.34,1.1-1.23a6.54,6.54,0,0,0,.53-.65l.51-.66a2.18,2.18,0,0,0,.44-1,3.09,3.09,0,0,0-.1-1.2,3.71,3.71,0,0,0-1.61-2.08,5.1,5.1,0,0,0-2.49-.79,2.49,2.49,0,0,0-1,.18,1.68,1.68,0,0,0-.8.54,31.62,31.62,0,0,1-5.15,5.25c-.39.29-.77.59-1.15.89l-.3.21-.31.2-.61.41-.62.41-.65.37L670,433a5.25,5.25,0,0,1-.66.36l-1.36.69c-.22.12-.47.22-.7.32l-.72.31-.71.31c-.24.1-.5.18-.75.28l-1.5.55-1.32.4-1,.3-1.11.27-1.11.28-1.06.21-1.43.29a2.67,2.67,0,0,0-1.79,1.35,3.88,3.88,0,0,0-.5,2.6,4,4,0,0,0,1.23,2.34A2.74,2.74,0,0,0,657.8,444.58Z" transform="translate(-217.89 -69.49)"/><path class="cls-5" d="M684.83,448.18l-.2.14q-1.12.78-2.28,1.53L680,451.23A59,59,0,0,1,666,456.75l-1.81.45c-.3.08-.6.16-.9.22l-.91.18c-1.21.23-2.43.51-3.64.67s-2.44.39-3.67.5l-1.84.2c-.62.06-1.24.08-1.85.12a3.88,3.88,0,0,0-2.41,1.09,3.19,3.19,0,0,0-1,2.33,3,3,0,0,0,1.12,2.3,3.74,3.74,0,0,0,2.68.83l1.16-.08.58,0,.57-.06,2.3-.25c.77-.07,1.52-.2,2.28-.31l2.26-.35,2.27-.44,1.14-.23.56-.11.57-.14c1.52-.39,3-.72,4.54-1.21a4.67,4.67,0,0,1,1.63-.2,3.86,3.86,0,0,1,.77.11,3.49,3.49,0,0,1,.72.2,3.62,3.62,0,0,1,2.05,1.92,3,3,0,0,1-.4,2.8,4,4,0,0,1-.52.65,4.87,4.87,0,0,1-.64.55,5.13,5.13,0,0,1-1.57.78l-.17.05-1.48.47-1.48.38-1.49.37c-.49.12-1,.25-1.48.34l-3,.57-.74.14-.73.11-1.46.22-1.64.25c-.54.08-1.11.13-1.66.19l-1.67.18c-.55.06-1.11.12-1.67.15l-3.38.21-3.4.05A82.71,82.71,0,0,1,633,471.76a5.21,5.21,0,0,0-3.08.41,3,3,0,0,0-1.7,2,2.86,2.86,0,0,0,.77,2.54,4.91,4.91,0,0,0,2.91,1.52,91.09,91.09,0,0,0,14.24,1.25,98.4,98.4,0,0,0,13.94-1c1.12-.17,2.24-.33,3.37-.52l3.41-.67.86-.17.86-.21,1.73-.42,1.73-.44c.58-.16,1.16-.34,1.74-.52l1.74-.53c.58-.18,1.16-.35,1.74-.57,1.16-.42,2.32-.84,3.47-1.28s2.31-1,3.46-1.48l.86-.38.86-.42,1.71-.86a7.41,7.41,0,0,1,1-.41c.32-.11.64-.19,1-.27a5.69,5.69,0,0,1,1.81-.15,3.48,3.48,0,0,1,2.67,1.33,2.79,2.79,0,0,1-.15,3,6.6,6.6,0,0,1-1.22,1.6,7.3,7.3,0,0,1-1.78,1.25l-.27.14-1.56.79c-.52.26-1.05.52-1.57.74l-3.17,1.36-.78.33-.78.3-1.57.58-1.56.56-.79.28-.78.25-3.12,1-.78.23-.78.2-1.54.39a105.93,105.93,0,0,1-12.13,2.28l-3.06.34c-.51,0-1,.11-1.54.15l-1.56.1c-1,.07-2.08.14-3.12.18l-3.16.06c-1,0-2.11,0-3.18,0l-1.59-.06c-.53,0-1.06,0-1.59-.08l-3.2-.24c-.53,0-1.06-.11-1.59-.17l-1.6-.2-1.59-.2c-.53-.07-1.06-.17-1.59-.26-1.05-.18-2.11-.35-3.16-.55-2.08-.45-4.18-.89-6.21-1.46s-4.05-1.17-6.06-1.81-3.93-1.37-5.81-2.16-3.73-1.6-5.57-2.43-3.59-1.74-5.28-2.67l-1.29-.69-.65-.36-.72-.41-1.42-.83c-.48-.27-.95-.58-1.42-.87l-1.42-.89-1.41-.94c-.94-.62-1.86-1.29-2.79-2A80.1,80.1,0,0,1,568.74,447a83.33,83.33,0,0,1-6.62-12.15,91.32,91.32,0,0,1-4.43-12.32,114.92,114.92,0,0,1-3.9-23.48l-.16-2.8-.09-2.75c0-.46,0-.92,0-1.37l0-1.36V379.59a3.56,3.56,0,0,1,7.11,0v.19c0,1.47,0,2.93,0,4.4v5.69l0,2.23c0,.74,0,1.5.06,2.25s.05,1.5.1,2.26l.13,2.28.18,2.3c.28,3.09.65,6.2,1.2,9.38s1.25,6.39,2.15,9.64a5.11,5.11,0,0,0,1.81,2.74,2.89,2.89,0,0,0,2.61.51h0a3,3,0,0,0,1.81-1.91,5.05,5.05,0,0,0,.09-3.09c-.67-2.46-1.26-4.91-1.7-7.34-.25-1.22-.43-2.43-.63-3.64-.09-.6-.16-1.2-.25-1.8s-.17-1.21-.23-1.8a4.29,4.29,0,0,1,.75-3,3.57,3.57,0,0,1,2.4-1.42,3.14,3.14,0,0,1,2.58,1,4.42,4.42,0,0,1,1.34,2.66l0,.16c.53,3.56.3,2.53.92,6.11l.34,1.8.4,1.81c.07.3.13.6.2.9l.23.91c.16.6.3,1.2.48,1.8a73.48,73.48,0,0,0,2.39,7.17,63.09,63.09,0,0,0,3.23,7,61.09,61.09,0,0,0,4.13,6.64,4.23,4.23,0,0,0,1.12,1.08,3.63,3.63,0,0,0,1.32.56,3,3,0,0,0,2.51-.59h0a3.25,3.25,0,0,0,1.12-2.29,4.33,4.33,0,0,0-.13-1.33,3.75,3.75,0,0,0-.62-1.25,57.62,57.62,0,0,1-7.81-15.65A79.49,79.49,0,0,1,581.4,401c-.29-2.83-.47-5.67-.54-8.49,0-.71,0-1.42,0-2.12V367.74a3.56,3.56,0,1,1,7.11,0V368c0,1.7,0,3.41,0,5.12v15.63c0,.66,0,1.28,0,1.92s0,1.26,0,1.89l.06,1.89.11,1.89c.16,2.51.38,5,.75,7.49a3,3,0,0,0,1.29,2,3.34,3.34,0,0,0,2.44.47h0a3.59,3.59,0,0,0,2.13-1.26,2.82,2.82,0,0,0,.63-2.18,93.18,93.18,0,0,1-.88-11.7,2.81,2.81,0,0,1,.27-1.27,3.08,3.08,0,0,1,.33-.55,2.69,2.69,0,0,1,.44-.51,3.84,3.84,0,0,1,2.5-1.07,3.31,3.31,0,0,1,2.5,1.05,3.64,3.64,0,0,1,.43.54,2.86,2.86,0,0,1,.34.54,2.53,2.53,0,0,1,.3,1.16v.11c.11,2.61.19,5.19.44,7.68a67.92,67.92,0,0,0,1.41,8.54,47.5,47.5,0,0,0,2.47,7.56,1.85,1.85,0,0,0,1.53,1,4.14,4.14,0,0,0,2.35-.47,5,5,0,0,0,1.82-1.54,1.69,1.69,0,0,0,.32-1.62,43.37,43.37,0,0,1-2.81-10,2.12,2.12,0,0,1,.77-1.92,4.56,4.56,0,0,1,2.38-1.07,4.4,4.4,0,0,1,2.57.37,2.19,2.19,0,0,1,1.29,1.44l0,.09c0,.28.1.51.14.7l.11.51c.05.3.09.52.14.72.09.41.15.86.4,1.81a33.54,33.54,0,0,0,1.09,3.45,26.66,26.66,0,0,0,1.27,2.81,18,18,0,0,0,3,4.21,21.74,21.74,0,0,0,4.56,3.49l.36.21.18.11.25.13,1,.54.51.27.49.24,1,.49c.33.17.65.29,1,.44s.65.31,1,.43l1,.38.47.2.47.16a34.27,34.27,0,0,0,14.75,2.15l.49,0,.5,0,1-.11c.66,0,1.37-.19,2.08-.29s1.34-.25,2-.37l.49-.09.46-.11.9-.23.45-.1.41-.14.83-.25a2.46,2.46,0,0,0,.41-.13l.38-.14.77-.28.19-.06.17-.08.34-.16.71-.29.63-.33.32-.15a3,3,0,0,0,.31-.16c.32-.21.81,0,1.38.41a6.92,6.92,0,0,1,.86.8,9.72,9.72,0,0,1,.84,1.07,6.27,6.27,0,0,1,.65,1.22,4.13,4.13,0,0,1,.28,1.17,1.64,1.64,0,0,1-.59,1.56l-.06,0a29.16,29.16,0,0,1-5.6,2.34l-.89.27-.44.14-.47.11-.94.24c-.32.07-.61.17-1,.22l-2,.4-2.1.32a47.23,47.23,0,0,1-8,.39,1.69,1.69,0,0,0-.84.23,2.26,2.26,0,0,0-.71.65,4.4,4.4,0,0,0-.83,2.26,3.92,3.92,0,0,0,.48,2.36,2.73,2.73,0,0,0,.71.76,1.65,1.65,0,0,0,.93.29H645l.8,0,.66,0a2.36,2.36,0,0,1,1.9,1,4.67,4.67,0,0,1,.92,2.47,3.51,3.51,0,0,1-.76,2.52,2.87,2.87,0,0,1-2.1,1.1h-.11l-1.52,0-.32,0-.43,0c-.19,0-.44,0-.76,0A54.77,54.77,0,0,1,633,443.82a2.5,2.5,0,0,0-1.12,0,3.48,3.48,0,0,0-1.06.43,3.63,3.63,0,0,0-1.48,2,3.35,3.35,0,0,0,.17,2.48,2.65,2.65,0,0,0,.75.94,2.8,2.8,0,0,0,1.1.56,66.48,66.48,0,0,0,38.14-1.95,49.17,49.17,0,0,0,11.24-5.84,4.46,4.46,0,0,1,.59-.34,2.72,2.72,0,0,1,.61-.2,3.54,3.54,0,0,1,1.3,0,4.35,4.35,0,0,1,1.28.45,4,4,0,0,1,1.1.86,2.92,2.92,0,0,1,.67,1.23,3.2,3.2,0,0,1,.06,1.38,4.07,4.07,0,0,1-.5,1.36,5.13,5.13,0,0,1-.44.6A2.9,2.9,0,0,1,684.83,448.18Z" transform="translate(-217.89 -69.49)"/><path class="cls-6" d="M691.16,460.4c.68-.46,1.36-.9,2-1.37l2-1.49,1-.74c.32-.25.62-.53.93-.79l1.85-1.62c.63-.52,1.19-1.11,1.78-1.68l1.73-1.73,1.63-1.82c.53-.61,1.09-1.2,1.58-1.84l1.19-1.52.59-.76c.2-.26.4-.51.57-.77l2.17-3.15c.66-1.07,1.31-2.15,2-3.23l.24-.41.22-.41.44-.82.87-1.65.43-.82c.14-.27.25-.53.38-.8l.74-1.59.73-1.59.67-1.61.66-1.62.33-.81.3-.82,1.18-3.28,1-3.06c.15-.52.33-1,.45-1.54l.41-1.54a5.15,5.15,0,0,0,.14-1.65,6.5,6.5,0,0,0-.14-.79,5.29,5.29,0,0,0-.29-.73,3.05,3.05,0,0,0-2.18-1.76,3.71,3.71,0,0,0-2.7.64,4.73,4.73,0,0,0-.55.47,3.87,3.87,0,0,0-.49.57,4.19,4.19,0,0,0-.67,1.43,89.82,89.82,0,0,1-5.51,15.24l-.68,1.47c-.24.49-.52,1-.77,1.49-.54,1-1,2-1.63,3l-.88,1.46c-.3.48-.58,1-.92,1.44-.65.94-1.28,1.89-2,2.81a57.64,57.64,0,0,1-9.49,10.08l-.61.52-.63.49-1.28,1-.63.48-.32.24-.33.23-1.33.89a5.64,5.64,0,0,0-2,2.52,3.1,3.1,0,0,0,.12,2.82,3.33,3.33,0,0,0,2.45,1.46,4.55,4.55,0,0,0,1.67-.09A5.83,5.83,0,0,0,691.16,460.4Z" transform="translate(-217.89 -69.49)"/><path class="cls-7" d="M708.55,464.09a81.19,81.19,0,0,0,14.31-17.61l.81-1.35c.27-.45.55-.91.78-1.36a6.94,6.94,0,0,0,.85-3.87,4.31,4.31,0,0,0-.16-.84,3.41,3.41,0,0,0-.34-.69,2.38,2.38,0,0,0-1.08-.91,3,3,0,0,0-1.41-.22,3.11,3.11,0,0,0-.73.13,5.45,5.45,0,0,0-.76.3,6.21,6.21,0,0,0-2.58,2.64,74.5,74.5,0,0,1-12.35,16.45c-.72.71-1.43,1.42-2.17,2.11a7.47,7.47,0,0,0-2.16,3.28,4.68,4.68,0,0,0-.22,1.64,2.15,2.15,0,0,0,.54,1.32,2.68,2.68,0,0,0,1.24.76,3.35,3.35,0,0,0,.79.15,3.68,3.68,0,0,0,.87,0A7.32,7.32,0,0,0,708.55,464.09Z" transform="translate(-217.89 -69.49)"/><path class="cls-8" d="M647,312l-7.45-8.53-1.05-1.2a3.56,3.56,0,0,0-5.35,4.69l7.43,8.51,1,1.2A3.56,3.56,0,0,0,647,312Z" transform="translate(-217.89 -69.49)"/><path class="cls-9" d="M683.54,390.16c0-.28,0-.56,0-.84v-.84l0-1.67c0-1.14-.05-2.26-.11-3.4l-.13-2.07c0-.34,0-.68-.07-1l-.11-1.05-.2-2.08-.29-2.1-.14-1.06c0-.35-.11-.7-.17-1l-.35-2.12-.09-.53-.1-.48-.2-.95c-.13-.63-.24-1.27-.42-1.9l-.28-1.15c-.1-.39-.17-.77-.29-1.15l-.66-2.31-.76-2.29c-.11-.39-.26-.77-.4-1.15l-.42-1.14a92.3,92.3,0,0,0-4-9.11l-1-1.95-.52-1-.56-1-1.11-1.93-1.19-1.92-.59-1-.63-1-1.25-1.9-1.33-1.89-.66-.94-.69-.94-1.34-1.82c-.45-.61-.93-1.21-1.39-1.81l-.71-.91c-.23-.3-.47-.6-.72-.89-.49-.59-1-1.18-1.49-1.76l-.08-.11a2.85,2.85,0,0,0-.44-.41l-.25-.17-.3-.16a3.88,3.88,0,0,0-1.33-.37,3.39,3.39,0,0,0-2.57.84,3.94,3.94,0,0,0-1.23,2.41,3.44,3.44,0,0,0,.67,2.43l1.14,1.39c.38.46.77.92,1.12,1.39l1.1,1.4c.37.46.73.92,1.07,1.4.84,1.13,1.7,2.25,2.47,3.39.39.56.8,1.13,1.19,1.7l1.12,1.71.57.86.52.86,1.07,1.71,1,1.73.5.86c.17.29.31.58.47.87a80.37,80.37,0,0,1,4,8.37,67.93,67.93,0,0,1,2.85,8.34c.18.6.3,1.2.45,1.8l.23.89.17.89.19.9.09.44,0,.12,0,.13,0,.25.35,2.08c.13.69.21,1.37.3,2.06s.19,1.36.27,2l.2,2c0,.34.08.68.1,1l.06,1c0,.64.08,1.29.11,1.93l0,1.91c0,.31,0,.64,0,.95V388c0,.62,0,1.25,0,1.87v.1a2.23,2.23,0,0,0,1,1.79,4.22,4.22,0,0,0,2.46.9C681.79,392.69,683.46,391.68,683.54,390.16Z" transform="translate(-217.89 -69.49)"/><path class="cls-10" d="M649.73,294.33l-7.17-8.15-1-1.16a3.56,3.56,0,0,0-5.33,4.71l7.16,8.14,1,1.15a3.56,3.56,0,0,0,5.35-4.69Z" transform="translate(-217.89 -69.49)"/><path class="cls-11" d="M680.47,332c-.49-.74-1.14-1.75-1.92-2.89l-1.24-1.77c-.43-.62-.87-1.25-1.33-1.86-.93-1.24-1.83-2.5-2.7-3.58s-1.59-2.06-2.18-2.74l-1.37-1.66-.68-.83-.72-.85-2.93-3.44-5.91-6.86-2.72-3.14a3.56,3.56,0,0,0-5.37,4.66q3.72,4.27,7.39,8.56l2.92,3.42,1.46,1.71.36.43.33.4.65.79,1.31,1.58c.44.53.84,1.07,1.27,1.61l1.26,1.6c.41.54.81,1.09,1.21,1.63l1,1.37c.46.63,1,1.39,1.51,2.15l.79,1.12.69,1c.42.64.76,1.15.92,1.41a3.2,3.2,0,0,0,2.07,1.3,3.54,3.54,0,0,0,2.62-.52,4,4,0,0,0,1.63-2.13A3,3,0,0,0,680.47,332Z" transform="translate(-217.89 -69.49)"/><path class="cls-12" d="M695.71,403.93c.21-1.09.38-2.19.58-3.29s.29-2.22.44-3.32a92.81,92.81,0,0,0,.29-16.18c-.07-1.65-.27-3.31-.43-5,0-.42-.09-.84-.15-1.25l-.16-1.25-.17-1.24-.08-.63-.11-.62c-.53-3.38-1.16-6.49-2-9.66a99.72,99.72,0,0,0-5.86-15.9c-1.23-2.5-.16-.46-1.44-2.93l0-.11a3.17,3.17,0,0,0-2-1.53,3.38,3.38,0,0,0-2.64.36c-1.66,1-2.48,2.89-1.69,4.4s-.07-.13.74,1.51c1.14,2.29,2.13,4.62,3.07,6.95.24.58.44,1.17.66,1.76s.45,1.17.64,1.76l.58,1.77.29.88.25.89c.2.72.42,1.44.62,2.17l.53,2.17.14.54.11.55.22,1.09.22,1.09c0,.17.08.37.11.57l.1.58.39,2.35c.07.39.12.78.17,1.17l.16,1.17c.23,1.56.36,3.11.52,4.66l.05.5,0,.5.06,1,.14,2,.05,2c0,.65,0,1.31,0,2,0,1.31,0,2.62-.08,3.9L690,393.2l-.17,1.91c-.09,1.26-.3,2.47-.45,3.7-.07.62-.2,1.22-.3,1.83l-.29,1.82,0,.1a2.71,2.71,0,0,0,.61,2.19,3.94,3.94,0,0,0,1,.89,3.66,3.66,0,0,0,1.27.52,4,4,0,0,0,2.64-.31A2.86,2.86,0,0,0,695.71,403.93Z" transform="translate(-217.89 -69.49)"/><path class="cls-13" d="M701,429.74l.88-1.67.22-.42.2-.42.39-.84c.35-.76.71-1.51,1-2.27l1-2.31c.16-.39.33-.77.47-1.16l.42-1.18c.28-.78.57-1.56.84-2.35a87.43,87.43,0,0,0,3.44-14.42,100.54,100.54,0,0,0,1.07-17.83,125.31,125.31,0,0,0-2.06-19.46l-.49-2.43-.25-1.21c-.09-.4-.19-.8-.29-1.2l-.59-2.4c-.22-.8-.45-1.59-.68-2.38-.42-1.59-1-3.14-1.48-4.71-.12-.39-.27-.78-.41-1.16l-.43-1.16-.42-1.16-.22-.58-.23-.57a123.11,123.11,0,0,0-8.11-16.55A145.64,145.64,0,0,0,686.73,317l-1.65-2.23-1.72-2.19c-1.12-1.47-2.32-2.88-3.5-4.31-.55-.68-1.1-1.32-1.66-2s-1.1-1.3-1.67-1.95l-.14-.17a3.56,3.56,0,0,0-5.41,4.62l2.29,2.7.77.9.75.91,1.49,1.8c.51.6,1,1.22,1.46,1.83l1.44,1.85q4.23,5.54,7.93,11.42A120.88,120.88,0,0,1,695,345a98,98,0,0,1,5.91,17.37c.08.37.19.74.26,1.12l.23,1.12c.15.75.31,1.49.45,2.25l.39,2.29c.12.76.27,1.52.36,2.29l.31,2.3.15,1.14.12,1.15.23,2.31.05.57,0,.58.07,1.15a100.55,100.55,0,0,1-.3,17.27A82.52,82.52,0,0,1,700.48,412a78.5,78.5,0,0,1-3.56,9.76l-1,2.22c-.09.18-.17.37-.26.55l-.28.53-.56,1.07-.09.18a2.86,2.86,0,0,0-.24.61,5.26,5.26,0,0,0-.12.65,3.75,3.75,0,0,0,.1,1.33,3.49,3.49,0,0,0,1.6,2.18,3.62,3.62,0,0,0,2.7.38,3.68,3.68,0,0,0,1.26-.61,3.36,3.36,0,0,0,.29-.24c.08-.08.16-.18.24-.27A3.92,3.92,0,0,0,701,429.74Z" transform="translate(-217.89 -69.49)"/><path class="cls-14" d="M687.7,296.41q-4.74-5.57-9.5-11Q670.6,276.61,663,268l-3.5-4a3.56,3.56,0,0,0-5.34,4.7l9.55,10.84q7.61,8.65,15.15,17.42l3.47,4a3.55,3.55,0,1,0,5.41-4.61Z" transform="translate(-217.89 -69.49)"/><path class="cls-15" d="M724.23,396.74l.1-1.18.06-1.18.11-2.35c0-.39,0-.78,0-1.17v-1.17l0-2.34c0-.94,0-1.86,0-2.79l-.08-2.77-.17-2.76c-.07-.92-.11-1.84-.21-2.75l-.27-2.73c0-.45-.09-.91-.15-1.36l-.18-1.35-.36-2.7c-.13-.9-.29-1.78-.44-2.67l-.27-1.62-.13-.81c0-.26-.11-.55-.17-.83l-.69-3.37c-.53-2.22-1-4.45-1.71-6.62l-.47-1.64c-.16-.55-.35-1.08-.52-1.62-.36-1.07-.69-2.16-1.07-3.22l-1.17-3.17c-.19-.53-.41-1.05-.62-1.56l-.64-1.56a136.27,136.27,0,0,0-10.56-20.34l-.72-1.16-.74-1.14-1.48-2.29c-.5-.76-1-1.48-1.54-2.23s-1-1.47-1.58-2.19l-.09-.13c-1.23-1.66-3.72-2.26-5.19-1a3.79,3.79,0,0,0-.57,5.18c.83,1.16,1.64,2.34,2.46,3.5s1.58,2.39,2.37,3.58c.48.71.91,1.45,1.37,2.18l1.35,2.19,1.29,2.24c.43.75.87,1.49,1.26,2.26.82,1.53,1.65,3,2.4,4.61.38.78.77,1.56,1.14,2.34l1.08,2.38a110.77,110.77,0,0,1,7.69,24.28c.1.46.17.9.24,1.35l.22,1.33c.15.89.31,1.78.44,2.67l.36,2.69.18,1.34c.06.45.1.91.14,1.36l.27,2.71c0,.45.09.91.11,1.36l.09,1.37c0,.91.13,1.81.16,2.73l.08,2.74c0,.45,0,.89,0,1.33V388l-.05,2.67-.12,2.67c0,.89-.06,1.78-.14,2.68v.15a4.43,4.43,0,0,0,.8,2.88,3.19,3.19,0,0,0,2.35,1.45,3.48,3.48,0,0,0,2.63-.95A4.33,4.33,0,0,0,724.23,396.74Z" transform="translate(-217.89 -69.49)"/><path class="cls-16" d="M693.06,281.65q-4.69-5.44-9.39-10.82l-1.35-1.53A3.55,3.55,0,1,0,677,274q4.68,5.36,9.36,10.77l1.34,1.55a3.56,3.56,0,1,0,5.39-4.65Z" transform="translate(-217.89 -69.49)"/><path class="cls-17" d="M731.73,427.37c.49-1.32.9-2.65,1.31-4l.41-1.35c.14-.45.28-.9.4-1.35l.71-2.73.35-1.36c.12-.45.21-.91.31-1.36l.59-2.74A126.16,126.16,0,0,0,738,396.4a135.26,135.26,0,0,0-.11-19.22c-.25-3.42-.62-6.79-1.09-10.12l-.18-1.25c-.06-.41-.13-.82-.2-1.23l-.41-2.47c-.24-1.58-.63-3.42-1-5.17l-.28-1.34-.32-1.32-.65-2.63-.17-.66-.18-.65L733,349l-.75-2.59c-.54-1.7-1.09-3.4-1.67-5.08l-.91-2.49-.46-1.25L729,337l-.24-.61a149.54,149.54,0,0,0-8.34-17.53c-2.61-4.67-5.43-9.13-8.37-13.42-1.08-1.53-2.13-3.09-3.25-4.56l-1.66-2.24-.84-1.1-.85-1.09-1.6-2c-.54-.69-1.09-1.34-1.65-2l-.14-.17a4.59,4.59,0,0,0-2.68-1.58,3.28,3.28,0,0,0-2.6.8,3.75,3.75,0,0,0-1.2,2.45,4.17,4.17,0,0,0,1,2.86c.73.88,1.47,1.76,2.18,2.68l1.44,1.84c.49.62,1,1.23,1.44,1.87l1.4,1.89c.47.64,1,1.26,1.4,1.92l2,2.87q.51.72,1,1.47l1,1.48,1,1.48c.32.49.63,1,.94,1.51.62,1,1.25,2,1.86,3a142.88,142.88,0,0,1,8.14,15.83,125.23,125.23,0,0,1,6.56,18.85l.61,2.49.3,1.24.26,1.26.52,2.52.13.64c0,.2.06.39.1.6l.2,1.18c.26,1.59.55,3.17.75,4.78l.33,2.42c0,.4.11.8.15,1.2l.12,1.22a133.44,133.44,0,0,1,.74,18.62,117.9,117.9,0,0,1-1.62,16.09,110.62,110.62,0,0,1-2.64,11.62l-.84,2.71-.42,1.36c-.14.45-.31.89-.46,1.34L725,425a5.72,5.72,0,0,0-.12,3.44,3,3,0,0,0,1.8,2.21,3.45,3.45,0,0,0,2.88-.43A5.59,5.59,0,0,0,731.73,427.37Z" transform="translate(-217.89 -69.49)"/><path class="cls-18" d="M568.08,161.79a111.28,111.28,0,0,1,2.43-14.21l.23-1,.25-1a5.28,5.28,0,0,0-.21-3.32,3,3,0,0,0-2-2,3.41,3.41,0,0,0-2.79.63,5.26,5.26,0,0,0-1.87,2.91,128.36,128.36,0,0,0-2.86,15L561,161a5.6,5.6,0,0,0,.1,1.83,5.8,5.8,0,0,0,.24.84,6.75,6.75,0,0,0,.39.76,3,3,0,0,0,2.4,1.56,3.58,3.58,0,0,0,2.59-1.18,4.88,4.88,0,0,0,.48-.62,5,5,0,0,0,.41-.72A5.46,5.46,0,0,0,568.08,161.79Z" transform="translate(-217.89 -69.49)"/><path class="cls-19" d="M614.23,274.72l-5.78-6.62-3.48-4-.88-1-1-1.12-1.9-2.26c-.64-.75-1.25-1.53-1.87-2.3s-1.25-1.53-1.85-2.33l-1.82-2.37c-.3-.4-.61-.79-.9-1.2l-.89-1.22c-2.87-3.91-5.6-8-8.17-12.29a136.65,136.65,0,0,1-7.14-13.41,117.86,117.86,0,0,1-8.67-26c-.13-.57-.22-1.1-.31-1.63l-.28-1.61-.28-1.6-.13-.81-.11-.81-.44-3.25-.12-.82-.09-.82-.18-1.64v-.19a5.62,5.62,0,0,0-1.32-3,3.06,3.06,0,0,0-2.58-1.17,3.44,3.44,0,0,0-2.41,1.54,5,5,0,0,0-.78,3.34l.29,2.84.38,2.8c.13.94.24,1.88.4,2.8l.49,2.77.3,1.65.07.42.1.44.19.87c.25,1.17.5,2.34.77,3.49l.9,3.44.23.85c.07.29.16.56.25.84l.51,1.68c.65,2.26,1.44,4.42,2.21,6.6l1.24,3.2c.21.53.41,1.07.63,1.59l.67,1.56a141.19,141.19,0,0,0,7.18,14.41q3.93,6.84,8.3,13.11c2.54,3.59,5.14,7.09,7.84,10.41.67.84,1.34,1.69,2,2.5l2.06,2.43,1,1.21.92,1.05,1.82,2.1c2.37,2.72,4.69,5.47,7.1,8.12l.11.12a3.55,3.55,0,1,0,5.34-4.69Z" transform="translate(-217.89 -69.49)"/><path class="cls-20" d="M583.86,150.5A113,113,0,0,1,587.32,139l.6-1.59a4.49,4.49,0,0,0,0-3,3.18,3.18,0,0,0-1.86-2,3.81,3.81,0,0,0-4.81,2.48,108.92,108.92,0,0,0-3.88,12.2c-.16.59-.32,1.17-.45,1.77a4.67,4.67,0,0,0,.39,3.12,3.19,3.19,0,0,0,.92,1.13,2.66,2.66,0,0,0,1.28.57,3.51,3.51,0,0,0,1.41-.09,4.07,4.07,0,0,0,2.92-3.08Z" transform="translate(-217.89 -69.49)"/><path class="cls-21" d="M585.78,205.38c-.3-1-.75-2.38-1.15-4-.2-.8-.44-1.64-.65-2.51s-.39-1.79-.58-2.69-.35-1.79-.51-2.66l-.44-2.5c-.24-1.6-.42-3-.57-4-.06-.42-.1-.83-.14-1.25l-.12-1.25c-.08-.83-.17-1.66-.24-2.5l-.14-2.51c0-.84-.11-1.67-.11-2.51,0-1.68-.08-3.36,0-5.05l.07-2.53.16-2.52c.08-1.55.28-3.09.43-4.63a4,4,0,0,0,0-.77,4.8,4.8,0,0,0-.11-.76,4.36,4.36,0,0,0-.58-1.39,3.19,3.19,0,0,0-2.3-1.55,3.51,3.51,0,0,0-2.65.85,4.16,4.16,0,0,0-.95,1.19,4.68,4.68,0,0,0-.32.76,5.43,5.43,0,0,0-.17.84l-.35,3.38-.22,3.39-.06.85c0,.28,0,.57,0,.85l0,1.69,0,1.7c0,.56,0,1.13,0,1.69a118.33,118.33,0,0,0,2.14,21.21c.06.39.24,1.22.47,2.25s.47,2.27.81,3.47c.15.61.31,1.21.47,1.79s.29,1.14.45,1.64l.66,2.18a4.45,4.45,0,0,0,.75,1.45,4.78,4.78,0,0,0,1.17,1,3,3,0,0,0,2.76.32,3.69,3.69,0,0,0,2-1.95,4,4,0,0,0,.33-1.42A4.48,4.48,0,0,0,585.78,205.38Z" transform="translate(-217.89 -69.49)"/><path class="cls-22" d="M634.48,277l-5-5.67q-6-6.75-11.89-13.56l-1.8-2.08c-.61-.69-1.19-1.36-1.82-2.11-1.24-1.47-2.5-2.92-3.69-4.43-.6-.76-1.22-1.5-1.81-2.26l-1.76-2.31-.88-1.15-.85-1.18-1.71-2.36a144.47,144.47,0,0,1-10.45-17.3c-.38-.73-.58-1.14-.68-1.38s-.14-.31-.16-.37-.12-.27-.86-1.76l-.06-.13a4.67,4.67,0,0,0-.89-1.22,4.21,4.21,0,0,0-1.21-.85,3.19,3.19,0,0,0-2.76-.09,3.57,3.57,0,0,0-1.82,2.1,4.1,4.1,0,0,0,.23,3.07c1.06,2.23-.09-.18,1,2,.37.79.77,1.55,1.16,2.31l1.19,2.29,1.25,2.24.62,1.12.31.56.33.55c1.73,2.92,3.52,5.79,5.41,8.55.57.84,1.14,1.69,1.72,2.52l1.78,2.46.89,1.23.92,1.2,1.83,2.39,1.88,2.35c.63.77,1.25,1.56,1.9,2.31l1.93,2.28.48.57.45.52.91,1q6.21,7.16,12.44,14.22c2,2.3,4,4.64,6.07,6.89l.09.09a3.55,3.55,0,1,0,5.33-4.7Z" transform="translate(-217.89 -69.49)"/><path class="cls-23" d="M660.32,285.68,658,283l-6.33-7.19-9.42-10.68-11.38-12.95c-2.08-2.38-4.17-4.77-6.23-7.16l-1.5-1.78c-.5-.6-1-1.18-1.5-1.79l-1.46-1.82-.73-.91-.71-.92a145.41,145.41,0,0,1-10.44-15.38,107.61,107.61,0,0,1-7.53-15.6A86.5,86.5,0,0,1,596.69,193a101.6,101.6,0,0,1-1.52-10.39c-.19-1.64-.21-3.28-.34-4.92v-.22a3.58,3.58,0,0,0-1.1-2.4,3.46,3.46,0,0,0-2.52-1,3.67,3.67,0,0,0-2.48,1.09,3.56,3.56,0,0,0-1,2.6l.21,3.68c.06.82.15,1.64.23,2.46l.12,1.24.06.61.08.61.34,2.46c.06.4.1.81.17,1.22l.22,1.22.32,1.81.16.9c.06.31.13.61.19.91l.4,1.81.2.91.23.9c.61,2.39,1.3,4.76,2.09,7.1a110.81,110.81,0,0,0,7.12,16.33,141.9,141.9,0,0,0,10.42,16.49c1.91,2.64,3.92,5.19,6,7.7,1,1.26,2.09,2.48,3.13,3.72l3.13,3.62q5.89,6.76,11.82,13.48l10,11.27,7.19,8.17c1.13,1.28,2.24,2.57,3.38,3.84l.14.17a3.56,3.56,0,0,0,5.35-4.69Z" transform="translate(-217.89 -69.49)"/><path class="cls-24" d="M608.55,178.1a74.93,74.93,0,0,1,.28-11.71c.14-1.54.39-3.07.62-4.61l.42-2.29c.06-.38.17-.76.25-1.14l.26-1.14a80.92,80.92,0,0,1,2.69-9l.78-2.05c.12-.35.27-.69.41-1l.43-1a2.52,2.52,0,0,0,.17-1.15,3.11,3.11,0,0,0-.32-1.15,3.86,3.86,0,0,0-1.92-1.81,4,4,0,0,0-2.64-.25,3,3,0,0,0-1.1.55,2.66,2.66,0,0,0-.74,1A89.56,89.56,0,0,0,604,153.54l-.33,1.24-.28,1.25c-.18.83-.39,1.66-.53,2.5s-.32,1.67-.46,2.51l-.37,2.53a88.63,88.63,0,0,0-.68,10.18l0,2.36c0,.4,0,.79,0,1.18l.07,1.18a3,3,0,0,0,1.19,2.16,3.51,3.51,0,0,0,2.58.71,4.33,4.33,0,0,0,2.4-1.11A2.71,2.71,0,0,0,608.55,178.1Z" transform="translate(-217.89 -69.49)"/><path class="cls-25" d="M648,251l-5.26-6-6.26-7.18-.78-.89-.39-.45-.35-.42-1.41-1.66c-.95-1.1-1.83-2.24-2.74-3.36-.56-.67-1.08-1.36-1.6-2.05s-1.07-1.37-1.57-2.07c-1-1.39-2-2.77-3-4.19s-1.88-2.83-2.79-4.25c-.45-.72-.87-1.44-1.31-2.16l-.64-1.08-.61-1.09-1-1.88-1-1.9-.49-.95-.45-1-.91-1.91-.83-1.93c-.14-.32-.28-.64-.41-1l-.38-1c-.24-.64-.51-1.28-.74-1.93l-.68-1.94c-.23-.62-.4-1.25-.59-1.88l-.28-.94c-.09-.32-.19-.63-.26-.94-.16-.63-.32-1.26-.49-1.89l-.13-.47-.11-.47-.22-.93,0-.11a2.21,2.21,0,0,0-.52-1,3.37,3.37,0,0,0-.93-.82,3.68,3.68,0,0,0-2.61-.44,4.05,4.05,0,0,0-2.3,1.38,3.08,3.08,0,0,0-.58,1.12,2.77,2.77,0,0,0,0,1.25l.38,1.72.45,1.71.22.86.11.43.14.42.52,1.7c.1.34.2.69.31,1l.35,1c.24.68.47,1.35.71,2l.79,2c.13.33.25.67.39,1l.43,1,.86,2,.93,2,.47,1c.16.33.33.65.5,1l1,1.95c.41.78.86,1.55,1.29,2.32l.65,1.16.69,1.15c.46.76.9,1.53,1.38,2.29l1.45,2.26c2,3,4,6,6.29,8.81,1.9,2.5,3.92,4.94,6,7.35l3.26,3.76,3.29,3.77c2.12,2.42,4.21,4.9,6.38,7.28l.1.1A3.56,3.56,0,0,0,648,251Z" transform="translate(-217.89 -69.49)"/><path class="cls-26" d="M622.13,172.3a59.73,59.73,0,0,1,1-9.25c.08-.43.15-.87.24-1.31a2.11,2.11,0,0,0-.66-1.87,4.38,4.38,0,0,0-2.26-1.3,5.47,5.47,0,0,0-1.38-.11,3.83,3.83,0,0,0-1.22.27,2.29,2.29,0,0,0-1.44,1.56,67.64,67.64,0,0,0-1.33,10.31l0,.37v.38l0,.75a2.34,2.34,0,0,0,1,1.86,4,4,0,0,0,2.51.75A4.88,4.88,0,0,0,621,174,2.13,2.13,0,0,0,622.13,172.3Z" transform="translate(-217.89 -69.49)"/><path class="cls-27" d="M673,258.68l-2-2.28-5.44-6.16-8-9.06q-4.87-5.55-9.68-11.07l-1.31-1.51-.65-.75-.33-.38-.28-.32-2.18-2.59L641,222l-2-2.62a112.31,112.31,0,0,1-7.11-10.67,83.55,83.55,0,0,1-5-10,65.69,65.69,0,0,1-2.75-8.19c-.28-1-.45-1.92-.67-2.88-.06-.22-.1-.52-.15-.78l-.14-.82c-.1-.54-.2-1.09-.29-1.63l-.2-1.52-.11-.77c0-.25-.07-.5-.1-.75v-.13a2.24,2.24,0,0,0-1.22-1.63,3.73,3.73,0,0,0-1.18-.46,4,4,0,0,0-1.38-.08,5.33,5.33,0,0,0-1.35.32,3.92,3.92,0,0,0-1.07.65,2.33,2.33,0,0,0-.87,2c0,.19,0,.38.06.57l.08.58.16,1.15c.08.53.13,1.05.22,1.57l.28,1.57.14.79c0,.26.09.54.15.76l.31,1.44A69.25,69.25,0,0,0,619.4,199a83.41,83.41,0,0,0,4.82,10.52,113.81,113.81,0,0,0,7.08,11.32q4,5.64,8.71,11.08l5,5.69,5,5.72,8.49,9.64,6.17,7c1,1.1,1.92,2.22,2.91,3.31l.13.14a3.56,3.56,0,1,0,5.33-4.71Z" transform="translate(-217.89 -69.49)"/><path class="cls-28" d="M711.88,192.83h-.56a30.53,30.53,0,0,1-21.65-9,31.81,31.81,0,0,1-3.74-4.53c-.55-.82-1.06-1.66-1.53-2.53-.24-.43-.46-.87-.68-1.32l-.31-.67-.15-.34-.08-.17a1.26,1.26,0,0,0-.07-.16,23,23,0,0,1-1.07-2.25q-.22-.57-.42-1.14c-.15-.38-.28-.76-.4-1.14s-.23-.76-.32-1.15-.16-.79-.25-1.16a16.42,16.42,0,0,1-.34-2.32c-.26-2.53-.54-5-1-7.25l-.16-.86-.19-.81-.18-.81-.09-.4a3.89,3.89,0,0,0-.1-.4l-.42-1.52c0-.13-.06-.26-.1-.38l-.12-.36-.23-.71-.22-.71-.26-.66-.24-.66-.12-.33a2.92,2.92,0,0,0-.14-.31c-.18-.4-.35-.8-.52-1.21s-.38-.74-.56-1.11a24.64,24.64,0,0,0-2.35-3.66c-.11-.12-.21-.24-.31-.37l-.15-.19-.08-.1-.08-.08c-.22-.22-.44-.45-.64-.69s-.45-.4-.67-.62l-.07-.09-.09-.07-.18-.13-.35-.3a18.7,18.7,0,0,0-3.2-2l-.47-.23-.23-.12c-.07,0-.17-.06-.25-.1-.35-.13-.69-.29-1-.44s-.76-.25-1.13-.39a5.26,5.26,0,0,0-.6-.19l-.62-.18-.3-.09-.16,0-.16,0-.67-.16-.67-.16L661,136l-.18,0-.36-.06c-.49-.08-1-.19-1.45-.28l-1.53-.21-.39-.06-.4,0-.82-.07-.81-.09c-.27,0-.57,0-.85-.05l-1.71-.1-1.8,0-.88,0-.83,0c-.57,0-1.09,0-1.63,0H647l-.38,0-.76.06c-.26,0-.49,0-.74.07l-.72.07a32,32,0,0,0-4.89,1l-.5.17-.25.08-.22.08-.47.17-.42.18-.22.09-.19.09c-.13.07-.27.12-.4.18s-.51.25-.73.4a13.73,13.73,0,0,0-2.59,1.87,18.65,18.65,0,0,0-2.55,3c-.23.29-.44.65-.67,1-.11.16-.21.36-.33.54s-.22.35-.33.55c-.22.4-.45.77-.66,1.21l-.34.63-.32.67-.17.33-.16.35-.32.71-.17.4-.17.43-.36.85c-.25.57-.46,1.13-.67,1.7s-.45,1.13-.63,1.7a2.12,2.12,0,0,1-1.56,1.29,4.8,4.8,0,0,1-2.6,0,3.84,3.84,0,0,1-2.16-1.49,2.46,2.46,0,0,1-.39-2.13l0-.13c.15-.53.38-1.06.57-1.58s.4-1.05.62-1.58l.94-2.24c.3-.65.59-1.32.91-1.94.15-.32.3-.64.47-.93s.31-.61.47-.9l.49-.87c.16-.29.33-.54.5-.82a28.06,28.06,0,0,1,2-3,27.09,27.09,0,0,1,2.14-2.42,21.71,21.71,0,0,1,4.72-3.51A25.35,25.35,0,0,1,639,129c.3-.07.58-.15.89-.21l.93-.19,1-.17.48-.08.5-.07c1.32-.2,2.74-.3,4.19-.39l1.11,0c.36,0,.75,0,1.13,0h1.15l1.19,0,1.2,0c.39,0,.77,0,1.16.06L655,128c.19,0,.39,0,.58,0l.56.06a49.3,49.3,0,0,1,8.34,1.4,31.8,31.8,0,0,1,6.72,2.59,1.52,1.52,0,0,0,1.53-.23,5.28,5.28,0,0,0,1.65-1.7,4.15,4.15,0,0,0,.7-2.28,1.83,1.83,0,0,0-.82-1.56c-.3-.17-.65-.32-1-.49l-.53-.26a4.64,4.64,0,0,0-.55-.26l-1.16-.49-.57-.25-.59-.2c-1.52-.59-3-1-3.6-1.17l-1.57-.38-.79-.2-.82-.15-1.63-.31-1.69-.24-.84-.13c-.28,0-.58-.06-.87-.09l-1.74-.17a8.29,8.29,0,0,0-.88-.06l-.89,0-.89-.06c-.3,0-.59,0-.9,0l-1.82,0-.9,0h-.89c-.58,0-1.17,0-1.75,0s-1.15,0-1.71.09a48.29,48.29,0,0,0-6.49.83,36.94,36.94,0,0,0-5.76,1.63l-.34.12-.33.14-.65.27c-.43.18-.84.39-1.27.57s-.81.41-1.21.63-.8.44-1.17.69a27.5,27.5,0,0,0-4.3,3.26,32.75,32.75,0,0,0-3.79,4.26,2,2,0,0,1-.79.6,2.85,2.85,0,0,1-1.08.19,4.82,4.82,0,0,1-2.51-.72,3.64,3.64,0,0,1-1.63-2.08,2.9,2.9,0,0,1-.1-1.2,2.11,2.11,0,0,1,.41-1.05l.07-.09.58-.8.61-.75c.4-.52.84-1,1.27-1.46A36.07,36.07,0,0,1,634.63,116c.35-.11.7-.19,1.06-.28l1.07-.26,1.08-.22.55-.11.55-.09,1.1-.19,1.13-.16c.74-.11,1.5-.18,2.26-.26a73.11,73.11,0,0,1,9.41-.25h.6l.6,0,1.18.07,1.19.06,1.17.12c.78.08,1.57.14,2.34.24l2.29.33a57.83,57.83,0,0,1,8.79,2.12,41,41,0,0,1,7.89,3.53,37.86,37.86,0,0,1,6.78,5,2.17,2.17,0,0,0,.91.51,3.29,3.29,0,0,0,1.09.08,3.72,3.72,0,0,0,2.22-1A3.37,3.37,0,0,0,691,123a2.39,2.39,0,0,0-.18-1.16,2.75,2.75,0,0,0-.67-1l-.68-.64-.72-.6c-.49-.4-1-.81-1.45-1.2-1-.72-2-1.51-3.06-2.16a46.73,46.73,0,0,0-6.61-3.58l-1.74-.73-.44-.18-.45-.16-.89-.32-.9-.32q-.44-.17-.9-.3l-1.83-.54c-.6-.19-1.23-.33-1.85-.48l-1.86-.45-1.89-.36c-.63-.12-1.26-.25-1.9-.33-1.27-.18-2.54-.39-3.83-.49l-1.93-.19-1.94-.12c-.65,0-1.3-.08-2-.1l-1.95,0c-1.3,0-2.6,0-3.89,0a62.41,62.41,0,0,0-15.12,2.22,43.36,43.36,0,0,0-13.46,6.4,44.49,44.49,0,0,0-10.4,10.71,56.51,56.51,0,0,0-3.93,6.53c-.31.56-.58,1.15-.86,1.72s-.55,1.16-.82,1.75c-.13.3-.27.58-.39.88l-.38.91-.75,1.8a94.64,94.64,0,0,0-4.6,14.9,3.5,3.5,0,0,1-1.51,2.16,4,4,0,0,1-2.65.58,3.21,3.21,0,0,1-2.26-1.5,3.6,3.6,0,0,1-.53-2.75l.05-.23c.19-.86.37-1.73.59-2.59l.69-2.56.14-.52.16-.52.31-1c.21-.68.41-1.37.63-2.05l.7-2,.34-1c.13-.33.26-.67.38-1l.77-2c.25-.66.54-1.32.81-2s.54-1.31.84-2,.59-1.32.91-2a61.68,61.68,0,0,1,9.56-14.69,49.48,49.48,0,0,1,6.49-6.12,47.89,47.89,0,0,1,7.53-4.82,55.62,55.62,0,0,1,16.78-5.39,83.57,83.57,0,0,1,17.27-.84,80.29,80.29,0,0,1,17.13,2.58,57.05,57.05,0,0,1,16.11,7.1c1.27.77,2.44,1.69,3.64,2.56.59.46,1.15,1,1.72,1.42l.85.72.81.76c.54.51,1.09,1,1.61,1.54l1.52,1.63c.52.53,1,1.11,1.45,1.68l.71.86.35.43.33.44a3.79,3.79,0,0,0,2.25,1.46,3.23,3.23,0,0,0,2.51-.42h0a3,3,0,0,0,1.3-2.22,4.16,4.16,0,0,0-.84-2.79l-.35-.48-.38-.45-.75-.91-.75-.91-.38-.45-.4-.44L701.59,113l-.41-.43-.43-.41-.86-.81-.86-.82-.43-.4-.45-.39-1.82-1.52-.46-.38-.48-.36-.95-.7-1-.7-.48-.35-.49-.33a62.67,62.67,0,0,0-16.82-7.92,4.4,4.4,0,0,1-1.47-.73,4.7,4.7,0,0,1-1.05-1.09,3.67,3.67,0,0,1-.62-2.72,3,3,0,0,1,1.87-2.12,4.46,4.46,0,0,1,1.61-.36,5.47,5.47,0,0,1,1.74.22l1.12.34c.37.11.75.25,1.12.38l2.23.79c.75.25,1.49.59,2.23.89l2.21.94a69,69,0,0,1,8.58,4.69,6.35,6.35,0,0,0,1.6.73l.4.1.39.08a4.19,4.19,0,0,0,.78.07,3,3,0,0,0,2.45-1.07h0a2.83,2.83,0,0,0,.24-2.7,4.62,4.62,0,0,0-.35-.75,2.92,2.92,0,0,0-.24-.37,3,3,0,0,0-.27-.35,6.81,6.81,0,0,0-1.45-1.25,75.85,75.85,0,0,0-13.46-6.85,88.23,88.23,0,0,0-13.73-4l-3.39-.65c-1.12-.17-2.24-.32-3.36-.48s-2.21-.27-3.32-.38l-1.65-.16-.82-.08-.82,0L655,80.34c-1.08,0-2.14-.06-3.21-.08l-1.6,0-1.64,0-1.65,0-1.67.07A92.43,92.43,0,0,0,631.46,82a77.33,77.33,0,0,0-14.3,4.24c-.6.25-1.19.49-1.78.75l-1.77.82c-.59.26-1.18.56-1.76.86s-1.16.59-1.74.91c-1.15.65-2.3,1.28-3.41,2-.56.35-1.13.69-1.67,1.07l-1.64,1.12a68.82,68.82,0,0,0-6.18,4.93l-.74.65-.71.68c-.47.45-.94.9-1.4,1.36-.89.93-1.81,1.85-2.65,2.81a8.13,8.13,0,0,1-1.57,1.36,5.84,5.84,0,0,1-1.64.78,3.47,3.47,0,0,1-3-.3,2.76,2.76,0,0,1-.95-2.82,6.58,6.58,0,0,1,.58-1.92,7.59,7.59,0,0,1,1.23-1.84l.17-.19c.24-.27.47-.55.72-.82l.75-.8c.51-.53,1-1.06,1.54-1.58,1.06-1,2.12-2.07,3.26-3s2.29-1.93,3.47-2.87c.59-.46,1.2-.91,1.81-1.36.3-.22.6-.45.91-.66l.93-.65a75.86,75.86,0,0,1,11.81-6.66A79.68,79.68,0,0,1,624,76.38,90.74,90.74,0,0,1,636,74a107.61,107.61,0,0,1,11.36-.86l2.74,0,2.64,0,1.32,0c.44,0,.88,0,1.33,0l2.7.15c1.78.08,3.64.3,5.47.48.91.08,1.85.21,2.78.35l2.8.4a94.17,94.17,0,0,1,23.18,6.91l2.9,1.4,1.44.72,1.43.79c.95.54,1.9,1.07,2.84,1.63s1.86,1.18,2.78,1.78c.46.31.92.6,1.37.92l1.35,1,1.33,1c.44.33.9.65,1.32,1,1.71,1.42,3.44,2.83,5,4.37l1.2,1.15.6.58.57.59c.76.8,1.51,1.61,2.25,2.42.19.2.38.4.56.61l.53.63,1,1.26c.69.84,1.41,1.68,2,2.55s1.28,1.74,1.91,2.62c.33.43.61.88.9,1.32l.87,1.34c1.19,1.79,2.19,3.6,3.22,5.43.12.22.26.45.38.68l.34.69.69,1.37.69,1.38.33.69c.11.23.21.45.31.68.8,1.83,1.64,3.69,2.3,5.51l1,2.76.89,2.73c.62,1.83,1.08,3.62,1.57,5.43.12.45.26.91.36,1.35l.31,1.34.6,2.67c.11.45.19.89.27,1.33l.25,1.31.48,2.64c.26,1.73.53,3.47.75,5.19l.29,2.56.14,1.28c0,.43.09.85.12,1.27.1,1.32.15,2.63.14,3.92,0,.65,0,1.27-.09,1.9s-.11,1.24-.19,1.86-.16,1.22-.26,1.82-.25,1.18-.39,1.76c-.28,1.16-.61,2.29-1,3.38,0,.07-.05.13-.07.19l-.08.17-.15.34c-.1.22-.2.45-.31.67-.22.45-.44.89-.68,1.32-.47.87-1,1.71-1.53,2.53a31.15,31.15,0,0,1-3.74,4.53A30.53,30.53,0,0,1,711.88,192.83Z" transform="translate(-217.89 -69.49)"/><path class="cls-29" d="M592,127.93a74.2,74.2,0,0,1,4.39-7.57l.37-.55.38-.54.77-1.09c.51-.72,1.07-1.42,1.61-2.13s1.12-1.4,1.72-2.08,1.19-1.36,1.83-2a55.24,55.24,0,0,1,8.3-7.16l1.39-1c.47-.31.94-.6,1.42-.89l.71-.44.73-.42c.49-.27,1-.56,1.46-.81a60.84,60.84,0,0,1,6-2.78,65.18,65.18,0,0,1,12.47-3.43A81.48,81.48,0,0,1,646.28,94c.89,0,1.76,0,2.63-.07h1.31l1.3,0,2.58,0,2.61.14a15.72,15.72,0,0,1,2,.16c.15,0,.3,0,2,.18h.15a4.68,4.68,0,0,0,1.54-.12,4.29,4.29,0,0,0,1.41-.58,3.19,3.19,0,0,0,1.57-2.3,3.46,3.46,0,0,0-.9-2.65,4.38,4.38,0,0,0-1.23-1,4.59,4.59,0,0,0-1.64-.46l-2.36-.23c-.45,0-.89-.08-1.34-.1L656.56,87l-1.34-.08c-.44,0-.89,0-1.33,0l-2.63,0-1.32,0h-1.35a92.46,92.46,0,0,0-11,.79c-.57.08-1.14.15-1.71.24l-1.72.29-.85.15-.87.17-1.72.36-1.74.42-.86.21-.87.24-1.74.5-1.73.56-.87.29-.86.31c-.58.22-1.16.42-1.73.65-1.15.47-2.29.94-3.42,1.48s-2.25,1.09-3.36,1.67c-.56.3-1.1.62-1.65.93l-.82.47-.8.5c-.46.29-.93.57-1.38.87l-1.35.92-.67.46-.65.48-1.31,1a65.14,65.14,0,0,0-9.28,8.88c-1.36,1.61-2.66,3.25-3.84,4.93a71.58,71.58,0,0,0-6,10l-.07.14a4.8,4.8,0,0,0-.38,3.24,3,3,0,0,0,1.76,2.17,3.62,3.62,0,0,0,2.78-.09A4.35,4.35,0,0,0,592,127.93Z" transform="translate(-217.89 -69.49)"/></g><g class="cls-1"><path class="cls-30" d="M230.51,187.86l.34-19.26.05-2.72c0-3.12-1.77-7.09-4-8.08s-4.13.57-4.2,4l-.36,19.49L222.3,184c-.06,3.18,1.77,7.08,4,8S230.45,191.21,230.51,187.86Z" transform="translate(-217.89 -69.49)"/><path class="cls-31" d="M246.57,176.11l.28-17.89,0-2.54c0-3.05-1.78-7-4-8.05s-4.12.39-4.17,3.71l-.31,18.11,0,2.57c0,3.1,1.78,7,4,7.93S246.52,179.38,246.57,176.11Z" transform="translate(-217.89 -69.49)"/><path class="cls-32" d="M245.29,258.52c.09-6.26.33-21.69.43-27.95l.47-29.94.1-6.87c.05-3.06-1.79-6.89-4-7.82s-4.14.63-4.2,3.95l-.32,19-.5,30.32c0,2.32-.23,13.93-.27,16.25-.06,3.1,1.8,6.75,4.05,7.4S245.24,261.8,245.29,258.52Z" transform="translate(-217.89 -69.49)"/><path class="cls-33" d="M261.92,224.07v.36c0,2.74-.07,5.47-.11,8.2L261.17,278c0,2.9,1.7,5.86,3.88,6.61h0c2.18.74,4-1,4-3.84l.36-25.72c0-3.16,2-4.71,4.36-3.9s4.24,4.37,4.2,7.27v.22c0,5.08-.14,10.11-.21,15.16l-.47,33.94c0,2.83,1.7,5.66,3.88,6.32h0c2.18.66,4-1.07,4-3.85l.9-64.65c0-3.07,2-4.51,4.35-3.64s4.25,4.42,4.21,7.24v.29c0,2.23-.07,4.45-.1,6.67l-2.92,211.32c0,3-2,5.18-4.38,5.22s-4.26-2.8-4.22-5.67v-.3c0-2.25.06-4.51.09-6.77l.64-46.11c0-2.79-1.7-5.31-3.89-5.64h0c-2.19-.33-4,1.7-4,4.53l-.26,19c-.05,3.11-2.05,5.21-4.38,5.12s-4.26-3.12-4.22-6.07v-.22c0-5.13.05-3.63.12-8.75l.57-41.24c0-2.86-1.7-5.53-3.89-6h0c-2.18-.44-4,1.56-4,4.47l-1.46,105.63c0,3.19-2.05,5.53-4.38,5.64s-4.27-2.81-4.22-5.84v-.36c0-2.77.08-5.55.12-8.32l.73-50.77c.05-2.94-1.67-5.53-3.84-5.8h0c-2.17-.26-4,1.94-4,4.92l-.33,21.41c0,3.28-2,5.56-4.37,5.54s-4.23-3.12-4.18-6.22v-.21c0-5.09.17-10.17.26-15.25l.61-36.4c.05-3-1.66-5.74-3.81-6.1h0c-2.16-.36-3.95,1.82-4,4.87l-.48,27.1c-.06,3.35-2.05,5.63-4.37,5.53s-4.2-3.35-4.14-6.52v-.27c0-6.06.1-5,.21-11l3.6-190.39c.06-3.4,2-5.11,4.23-4.3s4.07,4.63,4,7.76v.25c0,6-.22,12-.32,18l-.73,40.75c0,3.05,1.63,6.07,3.75,6.74h0c2.12.67,3.88-1.22,3.93-4.23v-.33l0-1.78,0-1.49c.05-3.32,2-5.13,4.25-4.5s4.12,4.22,4.07,7.27v.21c0,5,0,.87-.1,5.88l-.31,20.39c0,3,1.64,5.88,3.77,6.48h0c2.13.6,3.89-1.3,3.93-4.24l1.28-88.61c0-3.24,2-4.81,4.19-4S262,221.09,261.92,224.07Z" transform="translate(-217.89 -69.49)"/><path class="cls-34" d="M278.34,233.45l.31-22.5.49-35.88.12-8.25a7.24,7.24,0,0,0-.08-1.13,5.86,5.86,0,0,0-.1-.58l-.06-.3,0-.15a.3.3,0,0,0,0-.08,9.14,9.14,0,0,0-.91-1.4,11.79,11.79,0,0,0-2.95-2.75,4.38,4.38,0,0,0-3.05-.84,1.5,1.5,0,0,0-.95.63,1.34,1.34,0,0,0-.15.37c-.05.15-.08.31-.12.48a6.24,6.24,0,0,0-.1,1.1L270.39,185l-.5,36.37-.11,8.38c0,3,1.88,6.61,4.2,7.45S278.29,236.56,278.34,233.45Z" transform="translate(-217.89 -69.49)"/><path class="cls-35" d="M295,229.06l.29-21.43.05-3.06c0-2.82-1.89-6.52-4.21-7.56s-4.31.25-4.35,3.32l-.3,21.73,0,3.12c0,2.87,1.89,6.49,4.2,7.38S294.91,232.08,295,229.06Z" transform="translate(-217.89 -69.49)"/><path class="cls-36" d="M379.32,219.71l7.09,19.72,1,2.78a8.49,8.49,0,0,0,2.72,3.84,3.32,3.32,0,0,0,3.43.69c2.09-1,2.93-4.38,1.62-7.94l-7.48-20.37-1.06-2.88a8.28,8.28,0,0,0-2.72-3.83,2.69,2.69,0,0,0-3.21-.33C378.82,212.74,378.09,216.28,379.32,219.71Z" transform="translate(-217.89 -69.49)"/><path class="cls-37" d="M253.39,98.75a61.81,61.81,0,0,1,8.19-6.11A60.18,60.18,0,0,1,270.69,88a58.37,58.37,0,0,1,11.85-3.45,56.41,56.41,0,0,1,35.82,5.38,61.87,61.87,0,0,1,6.28,3.74,60.7,60.7,0,0,1,5.77,4.49l1.37,1.22,1.33,1.28c.45.42.86.87,1.29,1.32s.87.88,1.27,1.35l1.24,1.39c.41.47.8,1,1.2,1.45l.59.72.07.09,0,.09.06.17.12.34.49,1.36,7.85,21.83,13.57,37.75c2.2,6.13,4.35,12.31,6.61,18.39l.1.26a7.14,7.14,0,0,0,2.56,3.57,2.41,2.41,0,0,0,3,0c1.79-1.51,2.39-5.29,1.08-8.86l-5.7-15.51L354.9,129.12l-8.28-22.54-2.07-5.64L344,99.53l-.13-.35,0-.09,0,0,0,0-.18-.2-.69-.77-.69-.77c-.22-.26-.45-.51-.7-.76L340.13,95c-.24-.25-.48-.48-.73-.71l-.74-.71-.73-.7-.76-.67-1.52-1.34-1.56-1.27A70.31,70.31,0,0,0,327.55,85c-2-1.19-4-2.33-6.06-3.34s-4.22-1.91-6.4-2.71-4.43-1.46-6.7-2a67,67,0,0,0-6.92-1.31,63.81,63.81,0,0,0-7.05-.58c-2.36-.06-4.73,0-7.09.19a68.67,68.67,0,0,0-38,15.52L249,91a17,17,0,0,0-1.31,1.23,16.09,16.09,0,0,0-1.13,1.37c-.17.23-.34.46-.49.7s-.3.49-.43.73a12.42,12.42,0,0,0-.69,1.43c-.75,1.9-.82,3.6-.05,4.52a3.22,3.22,0,0,0,3.53.73,6.2,6.2,0,0,0,1.16-.41c.39-.18.8-.39,1.22-.63a12.84,12.84,0,0,0,1.26-.86A15.06,15.06,0,0,0,253.39,98.75Z" transform="translate(-217.89 -69.49)"/><path class="cls-38" d="M371.69,246.5l6,17.57.86,2.48c1,2.84,3.83,4.91,6,4s3.24-3.76,2.17-6.81l-6.4-18.19-.91-2.58a7.78,7.78,0,0,0-2.61-3.65,3,3,0,0,0-3.29-.44C371.52,240.06,370.6,243.29,371.69,246.5Z" transform="translate(-217.89 -69.49)"/><path class="cls-39" d="M343.91,165.55,353.33,193l10.1,29.41,2.31,6.75a7,7,0,0,0,2.5,3.46,2.9,2.9,0,0,0,3.21.33c2-1.19,2.83-4.55,1.65-7.9L366.38,206l-10.72-30.44-5.74-16.32a5.87,5.87,0,0,0-2.36-3.22,2,2,0,0,0-2.68.56C343.34,158.46,342.81,162.34,343.91,165.55Z" transform="translate(-217.89 -69.49)"/><path class="cls-40" d="M248.34,139.12a58.15,58.15,0,0,1,5-13.77,51.69,51.69,0,0,1,4.64-7.29c.86-1.15,1.79-2.24,2.75-3.32.49-.52,1-1,1.49-1.55s1-1,1.56-1.49l.8-.73.82-.69c.54-.48,1.13-.9,1.69-1.35,1.15-.86,2.33-1.69,3.57-2.44a42.92,42.92,0,0,1,7.77-3.78,40.27,40.27,0,0,1,20.8-2,38.89,38.89,0,0,1,5.11,1.26c.84.25,1.65.56,2.47.86l1.21.5c.41.16.79.36,1.19.54a38.92,38.92,0,0,1,4.57,2.51,40.52,40.52,0,0,1,4.21,3c.58.46,1.13,1,1.69,1.44s1.08,1,1.62,1.53,1,1.06,1.54,1.61l.75.83.37.42.36.43c.47.57,1,1.14,1.4,1.74l.68.89c.23.29.43.61.65.91l.65.92c.21.31.41.63.62.95l.61.94c.14.32.23.63.34,1l5.2,15.15c1.69,4.93.25.92,2,5.78l.07.21a5.13,5.13,0,0,0,2.23,3,1.93,1.93,0,0,0,2.58-.73c1.49-2,1.92-6.05.74-9.4L341,133.76l-5.28-15L334.35,115l-.16-.47-.08-.23s0,0,0-.06l0-.06L334,114l-.72-1c-.25-.32-.48-.66-.73-1l-.75-.94a59.53,59.53,0,0,0-6.57-6.89,53.36,53.36,0,0,0-4.51-3.59l-.59-.42c-.19-.14-.4-.26-.6-.4l-1.2-.79c-.83-.5-1.64-1-2.49-1.46s-1.71-.9-2.57-1.34l-1.32-.6c-.44-.21-.89-.38-1.34-.57l-.67-.27-.69-.25c-.45-.17-.9-.35-1.37-.49l-1.39-.46-1.4-.4a48.33,48.33,0,0,0-23.33-.45A52.08,52.08,0,0,0,263.4,101a56.51,56.51,0,0,0-14,14.31,61.39,61.39,0,0,0-8.46,18.05,2.29,2.29,0,0,0-.08.28,12.9,12.9,0,0,0-.33,1.55,12,12,0,0,0-.14,1.6,12.75,12.75,0,0,0,.3,3.07c.45,1.92,1.31,3.4,2.42,3.93a2.74,2.74,0,0,0,3.14-.53A7.82,7.82,0,0,0,248.34,139.12Z" transform="translate(-217.89 -69.49)"/><path class="cls-41" d="M262.43,187.06l.08-5.69.21-15.33.15-11.29a50.44,50.44,0,0,1,.38-5.06,42.31,42.31,0,0,1,.93-5,37.65,37.65,0,0,1,4.8-11.28,32.86,32.86,0,0,1,3.79-4.84c.7-.75,1.46-1.45,2.23-2.13a29.79,29.79,0,0,1,2.43-1.89A27.53,27.53,0,0,1,290,119.67a25.58,25.58,0,0,1,3.39-.18,23.94,23.94,0,0,1,3.38.27,25.21,25.21,0,0,1,3.32.73l.4.12.41.13.8.28c.53.21,1.06.4,1.57.64a26.77,26.77,0,0,1,5.81,3.53,31.57,31.57,0,0,1,4.8,4.8,36.86,36.86,0,0,1,3.75,5.67l.4.75c.14.25.25.51.38.76l.37.77c.12.27.2.59.31.88l1.17,3.56,8.84,26.81,7.41,22.49L341.84,208c.84,2.55,1.66,5.12,2.53,7.66l.11.33a5.06,5.06,0,0,0,2.32,3,2.75,2.75,0,0,0,3.1-.26c1.86-1.4,2.69-4.79,1.64-7.91l-1.86-5.55-5-14.93L337.24,168l-9-26.93-2.49-7.43-1.24-3.72-.15-.46a1.2,1.2,0,0,0-.11-.23l-.12-.22-.5-.9-.24-.45-.26-.44-.53-.87c-.17-.3-.36-.58-.54-.87l-.56-.85c-.38-.57-.78-1.11-1.17-1.67s-.82-1.08-1.25-1.6l-.66-.78-.32-.39-.35-.38-.68-.75c-.23-.25-.48-.49-.71-.73s-.48-.49-.73-.71l-.74-.7c-.25-.23-.51-.45-.77-.67l-.78-.66-.8-.62-.4-.31-.42-.3a32.59,32.59,0,0,0-15.07-6,33.16,33.16,0,0,0-16.17,2,35.71,35.71,0,0,0-6.83,3.55l-.8.54-.78.56-.39.29-.38.29-.76.6c-1,.83-1.95,1.67-2.85,2.59s-1.76,1.86-2.59,2.84c-.4.51-.81,1-1.19,1.52s-.77,1-1.12,1.57a45,45,0,0,0-3.76,6.71,51.32,51.32,0,0,0-3.74,12.4,64.46,64.46,0,0,0-.72,6.51l0,.83V152l0,1.53,0,3.05-.26,17.68c0,2.77-.1,5.53-.12,8.32v.36c0,3,1.8,6.84,4,7.77S262.38,190.25,262.43,187.06Z" transform="translate(-217.89 -69.49)"/><path class="cls-42" d="M329.92,224.66l6.44,19.54,10.28,31.17.59,1.79.7,2,1.42,4c1,2.84,3.83,4.92,6,4s3.24-3.77,2.17-6.81l-1.93-5.49-.12-.34-.11-.33-.21-.64-.43-1.29-.85-2.57-3.39-10.3-10.83-32.84-2.49-7.56a4.39,4.39,0,0,0-2.25-2.73,2.72,2.72,0,0,0-3,.58,7.31,7.31,0,0,0-2,3.52A7.55,7.55,0,0,0,329.92,224.66Z" transform="translate(-217.89 -69.49)"/><path class="cls-43" d="M281.69,154.72a16.5,16.5,0,0,1,3.53-4.48,14.39,14.39,0,0,1,6-3.2,12.65,12.65,0,0,1,6.77.13,13.82,13.82,0,0,1,6.73,4.61,18.36,18.36,0,0,1,2.24,3.47l.23.46.06.12a.78.78,0,0,1,.06.16l.16.49.65,2,1.3,3.93,9,27.26c1.45,4.38,2.84,8.84,4.34,13.16l.06.19a3.62,3.62,0,0,0,2.15,2.42,2.74,2.74,0,0,0,2.9-.85,8,8,0,0,0,1.94-3.8,8.77,8.77,0,0,0-.15-4.55l-3.78-11.46-9-27.4-2.73-8.29-.68-2.07-.09-.26,0-.13,0-.09-.17-.35-.35-.71-.37-.69q-.18-.34-.39-.69l-.39-.67-.43-.67c-.14-.22-.28-.44-.44-.65l-.45-.64c-.32-.42-.63-.84-1-1.24s-.69-.79-1-1.18-.73-.75-1.13-1.1a19.72,19.72,0,0,0-7.71-4.53,20.4,20.4,0,0,0-2.65-.63,19.08,19.08,0,0,0-5.44-.09,21.18,21.18,0,0,0-10,4.07,23.19,23.19,0,0,0-6.83,7.92l-.07.13a5.3,5.3,0,0,0,0,3.81,10.18,10.18,0,0,0,2.35,4.07,9.82,9.82,0,0,0,3.07,2.31C280.66,155.35,281.36,155.34,281.69,154.72Z" transform="translate(-217.89 -69.49)"/><path class="cls-44" d="M319.1,244.68l5.65,17.14.81,2.46a4.25,4.25,0,0,0,2.17,2.5,3.52,3.52,0,0,0,3.19,0,5,5,0,0,0,2.32-2.63,5.56,5.56,0,0,0,.11-3.76l-6-18.18-.85-2.6a3.91,3.91,0,0,0-2.16-2.46,3,3,0,0,0-3,.53,6.8,6.8,0,0,0-2.14,3.18A6.07,6.07,0,0,0,319.1,244.68Z" transform="translate(-217.89 -69.49)"/><path class="cls-45" d="M295.55,185.39l.07-4.61.09-7h0l1.17,3.55L303.05,196l5.17,15.69L312,223c.59,1.78,1.15,3.58,1.76,5.35l.08.23a3.24,3.24,0,0,0,2.07,2.18,3.05,3.05,0,0,0,2.94-.74,7.26,7.26,0,0,0,2.07-3.39,7,7,0,0,0,0-4.08l-1.29-3.91-3.49-10.59-5.16-15.64-6.32-19.17-1.72-5.22-.86-2.62-.22-.65-.05-.16,0-.09v0h0l0-.08a3.59,3.59,0,0,0-.17-.34,9.42,9.42,0,0,0-1.77-2.43,7.19,7.19,0,0,0-2.56-1.6,6.52,6.52,0,0,0-3-.31,7.55,7.55,0,0,0-4.84,2.77,9.73,9.73,0,0,0-2,4.32,11.05,11.05,0,0,0-.2,1.72l0,.43v1.27l0,3.59c0,2.25-.09,4.5-.1,6.77v.29c0,2.87,1.89,6.64,4.2,7.7S295.51,188.42,295.55,185.39Z" transform="translate(-217.89 -69.49)"/><path class="cls-46" d="M447.7,401.2a12.13,12.13,0,0,0,2.41-4.78c.05-.15.08-.32.12-.49l.07-.24.05-.26a1.36,1.36,0,0,0,0-.45,2.22,2.22,0,0,0-.18-.49,2.83,2.83,0,0,0-.81-.91,3.47,3.47,0,0,0-.59-.37,4,4,0,0,0-.7-.31,6.46,6.46,0,0,0-1.63-.34,10.34,10.34,0,0,0-1.67,0c-.26,0-.5.06-.74.09l-.67.13a4.17,4.17,0,0,0-1,.35.9.9,0,0,0-.3.22.43.43,0,0,0-.14.24l0,.13a.45.45,0,0,1,0,.11,1.89,1.89,0,0,0-.05.23c0,.07-.05.13-.07.2l0,.11,0,.08a1.27,1.27,0,0,0-.06.18l-.06.15a.45.45,0,0,1-.06.14s0,.1,0,.13l-.17.34c-.05.07-.08.1-.07.11h0l0,0,.05,0,.2.17q.19.15.39.33l.3.27.28.28a2,2,0,0,1,.25.26,1.45,1.45,0,0,1,.21.22l.29.33,1,1.19c.37.45.73.88,1.08,1.25a7.09,7.09,0,0,0,1,.94,3.65,3.65,0,0,0,.45.31,2.5,2.5,0,0,0,.4.17.65.65,0,0,0,.33,0A.45.45,0,0,0,447.7,401.2Z" transform="translate(-217.89 -69.49)"/><path class="cls-47" d="M408,300.33l4.66,13.23,11.19,31.79,13.55,38.47,5.4,15.31a1,1,0,0,0,.09.24,2.26,2.26,0,0,1,.11.22l.05.12.07.11a1.67,1.67,0,0,1,.12.23l.14.21a1.3,1.3,0,0,0,.12.21l.06.09.09.15c.06.11.13.17.19.27a8.6,8.6,0,0,0,1.24,1.41c.14.12.25.19.32.26s.12.07.13.1h0s0,0,0,0l-.05.15,0,.12c0,.15,0,.15,0,.08h0v-.31a.53.53,0,0,0,0-.13v0a.53.53,0,0,1,0,.13v.36h0v0a2.75,2.75,0,0,1,.14-.42c0-.07.09-.24.15-.35l.11-.23.12-.24c0-.1.1-.2.15-.28l.18-.31.2-.31.24-.36.32-.45c.12-.16.23-.31.36-.46.28-.38.54-.66.89-1.06l.25-.27.12-.13.14-.15c.19-.2.38-.4.58-.58l.14-.14.16-.16.33-.31.33-.29.17-.15.18-.16.24-.22s0,0,0,0,0,0,0,0a.35.35,0,0,0,0-.08.23.23,0,0,1-.06-.09h0v0h0l0-.05-.09-.24-.69-2-2.8-7.94-13.54-38.45L422,314c-1.9-5.39-3.74-10.82-5.71-16.19l-.08-.24c-1-2.82-3.82-4.88-6-4S407,297.29,408,300.33Z" transform="translate(-217.89 -69.49)"/><path class="cls-48" d="M466.12,400.61a40.16,40.16,0,0,0,1.14-6.52c0-.56.08-1.13.11-1.7l0-.86v-.87l0-4.3v-2.49c0-3-2-5.88-4.29-5.75s-4.31,2.51-4.32,5.73l0,4.4v2.12c0,.52,0,1,0,1.43a30.18,30.18,0,0,1-.64,5.21c-.09.47-.22.91-.32,1.36a3.15,3.15,0,0,0,.53,2.51,5.13,5.13,0,0,0,2.46,2,4.9,4.9,0,0,0,1.66.33A4,4,0,0,0,464,403,3.47,3.47,0,0,0,466.12,400.61Z" transform="translate(-217.89 -69.49)"/><path class="cls-49" d="M428.47,407.51c.13.22.25.48.41.73l.5.84.59.9c.21.33.46.65.7,1a24.08,24.08,0,0,0,3.43,3.79l.48.4c.16.13.32.28.48.4.33.24.65.49,1,.7a17.28,17.28,0,0,0,1.91,1.15,16.77,16.77,0,0,0,3.23,1.26,16.51,16.51,0,0,0,8.38.08,20.13,20.13,0,0,0,8-4.16,23.85,23.85,0,0,0,3.11-3.16,3.59,3.59,0,0,0,.4-.64,3.22,3.22,0,0,0,.22-.73,3.54,3.54,0,0,0-.07-1.55,4.06,4.06,0,0,0-2-2.48,6.73,6.73,0,0,0-3.06-.82,4,4,0,0,0-1.26.18,2,2,0,0,0-.49.24,1.44,1.44,0,0,0-.39.35,13.12,13.12,0,0,1-5.63,4.13,8.39,8.39,0,0,1-4.18.43l-.24,0-.24-.06c-.16,0-.31-.09-.47-.11l-.24-.09-.12,0-.11,0-.24-.08-.24-.11-.12-.05-.12-.06-.24-.12-.24-.14-.13-.06-.12-.08-.25-.15-.24-.17a6,6,0,0,1-.51-.37c-.16-.12-.47-.38-.87-.74a19.24,19.24,0,0,1-1.38-1.48c-.23-.32-.48-.61-.71-.95-.11-.17-.23-.31-.33-.48l-.16-.23-.12-.19c-.16-.25-.3-.51-.42-.7s-.2-.37-.26-.48a1.94,1.94,0,0,0-.76-.71l-.28-.14-.27-.12a3.87,3.87,0,0,0-.63-.19,6.47,6.47,0,0,0-1.5-.12,2.9,2.9,0,0,0-1.7.16,3.11,3.11,0,0,0-.75.43,2.88,2.88,0,0,0-.34.27,2.74,2.74,0,0,1-.31.29,4.19,4.19,0,0,0-1,1.19,3.64,3.64,0,0,0-.31.7,2,2,0,0,0-.13.75A3,3,0,0,0,428.47,407.51Z" transform="translate(-217.89 -69.49)"/><path class="cls-50" d="M384.3,282.79l4,11.48L398,321.61l11.71,33.26,10.06,28.57c1.64,4.64.22.83,1.92,5.44l.07.2c1,2.83,3.82,4.88,6,4s3.22-3.8,2.15-6.83c-1.14-3.26.1.26-1.05-3l-9.62-27.33-11.71-33.24-10.05-28.55c-1.64-4.63-3.2-9.31-4.91-13.92l-.07-.2c-1-2.82-3.82-4.89-6-4S383.23,279.76,384.3,282.79Z" transform="translate(-217.89 -69.49)"/><path class="cls-51" d="M356.55,252.59l1.75,5.31L363,272.22l7.64,21.69,9.25,26.28,10.21,29,10.23,29.05L410,405.5l2.07,5.89.29.8.14.4.19.38.75,1.51.81,1.48c.28.49.58,1,.86,1.46s.61,1,.91,1.43l.46.69.49.69.49.68.51.66c.35.45.69.89,1.06,1.32a38.93,38.93,0,0,0,4.79,4.82,34.77,34.77,0,0,0,8.46,5.31,33.06,33.06,0,0,0,9.73,2.6,35.92,35.92,0,0,0,4.75.17,32.18,32.18,0,0,0,4.71-.53l.41-.08a6.8,6.8,0,0,0,4-2.39,4.11,4.11,0,0,0,.83-1.76,2.72,2.72,0,0,0-.2-1.69,4.18,4.18,0,0,0-1.06-1.37,5.53,5.53,0,0,0-1.52-.91,6.6,6.6,0,0,0-3.74-.33,25.64,25.64,0,0,1-4.86.46,24.42,24.42,0,0,1-12.48-3.53,29.5,29.5,0,0,1-7.51-6.58c-.53-.66-1.05-1.33-1.54-2l-.37-.53-.36-.54c-.23-.35-.46-.7-.67-1.07s-.45-.72-.65-1.09l-.61-1.12c-.2-.37-.38-.76-.57-1.13l-.14-.29-.08-.14-.05-.15-.21-.6-9.18-26.06-10.2-29-10.22-29-9.6-27.26-8.06-22.88L371.39,270c-.24-.68-.48-1.39-.72-2.1l-.71-2.13-2.84-8.5c-.89-2.66-1.76-5.34-2.68-8l-.11-.35a6.68,6.68,0,0,0-2.45-3.37,3,3,0,0,0-3.2-.32,5.13,5.13,0,0,0-2.2,3A7.14,7.14,0,0,0,356.55,252.59Z" transform="translate(-217.89 -69.49)"/><path class="cls-52" d="M451.2,452a51.42,51.42,0,0,0,18.5-5.86,55.06,55.06,0,0,0,14.65-11.48,61.78,61.78,0,0,0,4.53-5.64,62.81,62.81,0,0,0,8.9-18.78l.24-.81.21-.81.4-1.63.36-1.62.17-.81.15-.81.28-1.62c.09-.54.16-1.08.23-1.62.17-1.08.26-2.15.38-3.22.06-.54.08-1.06.12-1.6s.08-1.07.1-1.6l.06-1.58,0-.79V391l0-4.8,0-8.54c0-3-2-5.88-4.28-5.75S492,374.4,492,377.62l0,11.63v1.53c0,.57,0,1.16,0,1.75,0,1.17-.11,2.36-.2,3.54a67.19,67.19,0,0,1-1,7.13c-.2.95-.4,1.9-.65,2.84s-.51,1.89-.78,2.83a55.64,55.64,0,0,1-2,5.57l-.29.69-.31.68c-.22.45-.42.91-.65,1.35-.45.9-.91,1.8-1.41,2.67-.25.44-.5.88-.77,1.31l-.8,1.29-.85,1.27c-.29.42-.6.83-.9,1.25a48.26,48.26,0,0,1-8.55,9,45.38,45.38,0,0,1-10.88,6.51,44.05,44.05,0,0,1-5.64,1.92,42.32,42.32,0,0,1-5.92,1.12,19.88,19.88,0,0,0-5.78,1.54c-1.6.75-2.75,1.71-2.75,2.88s.94,2.35,2.64,3.18A12.64,12.64,0,0,0,451.2,452Z" transform="translate(-217.89 -69.49)"/><path class="cls-53" d="M358.67,309.67,363,321.89l10.3,29.24,12.45,35.36,11.17,31.7.26.71c0,.12.09.24.14.35l.17.35.68,1.36c.45.91.93,1.81,1.41,2.7.24.45.5.89.76,1.33l.77,1.32c.26.43.55.87.83,1.31l.81,1.23a56.67,56.67,0,0,0,7.88,9.26l.26.25a12.9,12.9,0,0,0,5.84,3.2,5.74,5.74,0,0,0,1.33.16,4.5,4.5,0,0,0,1.14-.11,2.13,2.13,0,0,0,1.45-1,3.18,3.18,0,0,0,.29-1.81,5.76,5.76,0,0,0-.22-1c-.06-.18-.13-.36-.2-.54s-.15-.37-.23-.56a13,13,0,0,0-1.42-2.28,18.7,18.7,0,0,0-2.07-2.29,48.67,48.67,0,0,1-5.72-6.44,55.19,55.19,0,0,1-4.52-7.22c-.41-.75-.78-1.52-1.17-2.29a9.4,9.4,0,0,1-.48-1.18l-.43-1.21-1.41-4-2.57-7.3-5.15-14.61L382.89,352.5,372.1,321.88c-1.73-4.93-3.4-9.89-5.21-14.79l-.07-.22c-1-2.83-3.83-4.91-6-4S357.6,306.63,358.67,309.67Z" transform="translate(-217.89 -69.49)"/><path class="cls-54" d="M478.72,460.1a71.94,71.94,0,0,0,18.38-14.85,75.89,75.89,0,0,0,12.19-18.62l.65-1.4.59-1.41c.2-.47.4-.95.59-1.42l.53-1.41a17.71,17.71,0,0,0,1-3.91,14.73,14.73,0,0,0,.06-3.49c-.26-2.06-1-3.45-2.2-3.6s-2.46.63-3.64,2a14.46,14.46,0,0,0-1.74,2.56,26.05,26.05,0,0,0-1.54,3.38,70.16,70.16,0,0,1-4,8.74,67.31,67.31,0,0,1-5.31,8.34,64.44,64.44,0,0,1-14.68,14.31c-.82.58-1.68,1.13-2.53,1.68s-1.74,1.05-2.62,1.56a36,36,0,0,0-6.44,4.53,9.41,9.41,0,0,0-1.88,2.19,1.94,1.94,0,0,0-.25,1.84c.52,1.06,2.12,1.64,4.46,1.56A19.46,19.46,0,0,0,478.72,460.1Z" transform="translate(-217.89 -69.49)"/><path class="cls-55" d="M331.18,281.32l.3.92.16.48.2.58.82,2.31,4.41,12.54,6.53,18.53,8,22.7,8.72,24.76,8.8,25,8.25,23.41,4.07,11.52.45,1.22c.08.2.15.4.24.6l.29.59,1.16,2.32c.4.77.81,1.54,1.22,2.3l.62,1.15.65,1.12c.45.75.89,1.49,1.35,2.24l.73,1.12.68,1c.45.67.95,1.36,1.43,2l.73,1,.78,1,1.14,1.45,1.21,1.44c.79,1,1.67,1.89,2.54,2.82.43.47.89.93,1.35,1.39l1.39,1.36,1.46,1.34c.49.44,1,.88,1.51,1.31a67.95,67.95,0,0,0,21.31,12.27c1.29.44,2.59.88,3.91,1.23.66.19,1.32.37,2,.53l2,.46.7.15a24.52,24.52,0,0,0,5,.47c.4,0,.79,0,1.18,0s.76-.07,1.12-.12a18,18,0,0,0,2-.37,8.73,8.73,0,0,0,2.91-1.27,1.87,1.87,0,0,0,.92-1.65,2.74,2.74,0,0,0-1.06-1.66,9.62,9.62,0,0,0-2.46-1.47,39.35,39.35,0,0,0-8-2.33,58.06,58.06,0,0,1-20.93-8.87,62,62,0,0,1-9.51-8,68.63,68.63,0,0,1-5.63-6.58L396.7,434l-.6-.86-.56-.85c-.38-.59-.82-1.24-1.19-1.85s-.74-1.24-1.1-1.86-.71-1.26-1.05-1.9-.68-1.27-1-1.91l-1-1.94-.23-.49-.19-.51-.38-1c-.25-.68-.5-1.36-.73-2l-.55-1.57-.82-2.31-8-22.69-8.71-24.75-8.8-25-8.24-23.4-6.93-19.69-5-14.21-1.17-3.36-.59-1.68c-.11-.29-.18-.51-.26-.75l-.24-.7-.08-.25a5.07,5.07,0,0,0-2.26-2.78,3.61,3.61,0,0,0-3.27-.24,4.87,4.87,0,0,0-2.4,2.4A4.73,4.73,0,0,0,331.18,281.32Z" transform="translate(-217.89 -69.49)"/><path class="cls-56" d="M480.57,69.49h.68c20.47.08,37,22.26,36.87,49.55l-1,268.86a7.19,7.19,0,0,1-.35,2.23l-.05.13,0,.06a.24.24,0,0,0,0,.09l-.1.38c-.07.25-.15.5-.23.73a10.61,10.61,0,0,1-.56,1.33,6.22,6.22,0,0,1-1.44,1.92,2.81,2.81,0,0,1-1.7.72,2.12,2.12,0,0,1-1.61-.75,6.18,6.18,0,0,1-1.3-2,13.07,13.07,0,0,1-.5-1.33c-.08-.23-.15-.46-.22-.7l-.09-.37-.09-.25a7,7,0,0,1-.33-2.19v-.3c0-2.37,0-4.73,0-7.1l.63-162.44c0-2.91-1.75-5.28-3.94-5.28s-3.95,2.34-4,5.24c0,6.77-.09,17.16-.11,20.1l-.44,113.75c0,3.22-2,5.59-4.33,5.73s-4.29-2.75-4.28-5.75v-.23c-.06-5.22,0-10.45.06-15.67l.54-138.18c0-2.93-1.76-5.3-4-5.31h0c-2.19,0-4,2.36-4,5.28l-.41,104.63-.2,52.31-.1,26.15,0,6.54v3.3c0,.58,0,1.16,0,1.75s0,1.17-.09,1.76a52.74,52.74,0,0,1-2.72,13.92,6.18,6.18,0,0,1-.51,1.17,7.33,7.33,0,0,1-.66,1,5.75,5.75,0,0,1-1.62,1.41,4.28,4.28,0,0,1-1.78.58,3.61,3.61,0,0,1-1.72-.27,3.05,3.05,0,0,1-1.29-1.1,4.8,4.8,0,0,1-.73-1.68,6.57,6.57,0,0,1-.19-1.94,6.78,6.78,0,0,1,.1-1,8.71,8.71,0,0,1,.26-1l.1-.31a46,46,0,0,0,1.74-7.31,48,48,0,0,0,.52-6.13c0-.25,0-.51,0-.78V385l.05-13.39.11-26.77.2-53.53.42-107.07c0-2.93-1.76-5.3-4-5.31s-4,2.36-4,5.28L468,234.72c0,3.22-2,5.6-4.33,5.73s-4.3-2.75-4.28-5.75l.09-23.54c0-2.92-1.76-5.29-3.95-5.3s-4,2.36-4,5.28l-.52,133.4c0,3.22-2,5.6-4.33,5.74s-4.29-2.75-4.28-5.76v-.24c-.05-5.74.05-11.49.07-17.22l.81-208.28C443.42,91.48,460.1,69.41,480.57,69.49Z" transform="translate(-217.89 -69.49)"/><path class="cls-57" d="M467.51,368.9l0-12.18.12-29,.13-35.29.12-30.31c0-4.93.08-.86,0-5.78v-.21c0-3-1.95-5.89-4.28-5.75s-4.32,2.51-4.33,5.73c0,3.45,0-.28,0,3.17l-.11,29-.14,35.29L459,353.89c0,4.92-.11,9.86-.06,14.78v.21c0,3,2,5.88,4.29,5.75S467.49,372.12,467.51,368.9Z" transform="translate(-217.89 -69.49)"/></g></svg>